<?xml version="1.0" standalone="no"?>
<!DOCTYPE svg PUBLIC "-//W3C//DTD SVG 20010904//EN"
 "http://www.w3.org/TR/2001/REC-SVG-20010904/DTD/svg10.dtd">
<svg version="1.0" xmlns="http://www.w3.org/2000/svg"
 width="2664.000000pt" height="2664.000000pt" viewBox="0 0 2664.000000 2664.000000"
 preserveAspectRatio="xMidYMid meet">
<metadata>
Created by potrace 1.11, written by Peter Selinger 2001-2013
</metadata>
<g transform="translate(0.000000,2664.000000) scale(0.100000,-0.100000)"
fill="#000000" stroke="none">
<path d="M13256 26633 c-2 -2 -25 -6 -52 -8 -43 -4 -77 -10 -109 -19 -5 -2
-27 -6 -47 -11 -21 -4 -38 -10 -38 -14 0 -4 -7 -8 -15 -8 -15 0 -89 -28 -115
-44 -8 -5 -27 -14 -42 -20 -16 -6 -28 -15 -28 -20 0 -5 -7 -9 -15 -9 -8 0 -15
-5 -15 -10 0 -5 -3 -9 -7 -9 -21 3 -33 -2 -27 -13 4 -6 3 -8 -4 -4 -6 3 -17
-1 -26 -9 -8 -9 -18 -16 -21 -15 -21 1 -25 -1 -20 -10 3 -5 0 -7 -8 -5 -7 3
-21 -3 -31 -14 -10 -11 -22 -18 -26 -16 -4 3 -13 -2 -20 -10 -7 -8 -19 -15
-27 -15 -7 0 -16 -7 -19 -15 -4 -8 -10 -12 -15 -9 -5 3 -9 0 -9 -6 0 -6 -4 -9
-10 -5 -5 3 -18 -3 -30 -15 -11 -11 -21 -20 -22 -20 -21 -3 -48 -14 -48 -21 0
-5 -7 -9 -15 -9 -8 0 -15 -5 -15 -11 0 -5 -4 -8 -9 -4 -6 3 -14 -2 -19 -11 -5
-9 -11 -15 -13 -13 -11 6 -48 -14 -43 -23 5 -7 2 -8 -5 -3 -7 4 -22 -2 -37
-16 -13 -12 -24 -18 -24 -13 0 5 -4 4 -8 -1 -4 -6 -24 -19 -44 -30 -21 -11
-38 -23 -38 -27 0 -5 -3 -7 -7 -6 -13 3 -83 -35 -83 -44 0 -5 -4 -6 -10 -3 -5
3 -10 2 -10 -2 0 -5 -12 -14 -27 -21 -40 -17 -140 -74 -161 -92 -10 -8 -25
-16 -33 -18 -8 -2 -19 -10 -25 -17 -6 -8 -14 -11 -18 -7 -4 4 -14 -2 -22 -13
-8 -11 -17 -19 -19 -17 -13 6 -25 1 -19 -10 4 -6 3 -8 -4 -4 -6 3 -17 -1 -26
-9 -8 -9 -18 -14 -20 -13 -3 2 -14 -5 -25 -14 -11 -9 -22 -14 -25 -11 -3 4 -6
0 -6 -7 0 -7 -3 -10 -6 -7 -4 4 -19 -1 -33 -11 -14 -10 -38 -24 -53 -32 -16
-7 -28 -17 -28 -22 0 -5 -4 -6 -10 -3 -5 3 -10 1 -10 -6 0 -7 -3 -9 -6 -6 -4
3 -18 -3 -32 -13 -13 -11 -29 -20 -35 -20 -6 0 -25 -11 -43 -25 -18 -14 -36
-25 -41 -25 -10 0 -110 -62 -133 -82 -8 -7 -16 -12 -17 -11 -7 6 -73 -29 -73
-38 0 -5 -4 -7 -10 -4 -5 3 -10 2 -10 -3 0 -6 -13 -15 -30 -21 -16 -5 -30 -15
-30 -20 0 -6 -4 -10 -8 -9 -12 4 -82 -35 -82 -45 0 -4 -4 -6 -9 -3 -5 3 -19
-2 -32 -12 -30 -21 -63 -40 -111 -64 -21 -10 -38 -24 -38 -30 0 -6 -3 -8 -7
-5 -3 4 -22 -5 -41 -20 -20 -15 -32 -21 -28 -14 6 10 3 9 -13 -1 -12 -7 -21
-16 -21 -21 0 -4 -4 -5 -10 -2 -5 3 -10 1 -10 -4 0 -6 -7 -11 -15 -11 -7 0
-19 -8 -24 -17 -6 -10 -11 -14 -11 -10 0 11 -43 -13 -53 -30 -5 -7 -12 -11
-17 -8 -5 3 -18 -2 -30 -12 -11 -10 -24 -18 -28 -18 -9 -1 -72 -40 -89 -55 -7
-6 -15 -9 -17 -8 -3 2 -14 -4 -24 -12 -10 -8 -25 -16 -33 -18 -8 -2 -16 -8
-17 -13 -2 -5 -8 -7 -13 -3 -5 3 -9 0 -9 -5 0 -6 -7 -11 -15 -11 -8 0 -15 -5
-15 -12 0 -6 -3 -8 -6 -5 -4 4 -19 -1 -33 -11 -14 -10 -38 -24 -53 -32 -16 -7
-28 -17 -28 -22 0 -5 -4 -7 -9 -3 -6 3 -13 -1 -18 -9 -4 -8 -10 -14 -13 -14
-14 2 -50 -15 -50 -23 0 -6 -4 -7 -10 -4 -5 3 -10 1 -10 -4 0 -6 -7 -11 -15
-11 -8 0 -15 -5 -15 -11 0 -5 -4 -7 -10 -4 -5 3 -10 2 -10 -2 0 -5 -18 -16
-40 -26 -22 -9 -40 -22 -40 -28 0 -5 -4 -8 -9 -5 -5 3 -21 -4 -37 -16 -15 -12
-35 -23 -43 -25 -9 -1 -21 -9 -27 -17 -6 -9 -14 -13 -17 -9 -4 3 -7 1 -7 -6 0
-7 -4 -10 -9 -6 -6 3 -20 -5 -32 -17 -12 -13 -18 -16 -14 -8 7 13 6 13 -11 0
-10 -9 -31 -22 -46 -30 -16 -7 -28 -17 -28 -22 0 -5 -5 -6 -10 -3 -6 3 -13 -1
-16 -9 -3 -9 -9 -14 -13 -12 -3 2 -24 -7 -46 -20 -22 -13 -66 -37 -97 -55 -32
-17 -58 -36 -58 -41 0 -5 -4 -7 -9 -4 -5 3 -14 -1 -21 -9 -7 -8 -16 -12 -21
-9 -5 3 -9 2 -9 -3 0 -4 -15 -14 -32 -22 -18 -8 -36 -19 -40 -25 -4 -6 -11
-11 -15 -12 -17 -1 -63 -28 -63 -36 0 -4 -7 -8 -16 -8 -16 0 -73 -36 -85 -53
-3 -5 -9 -8 -13 -8 -18 3 -26 0 -26 -9 0 -6 12 -8 28 -5 50 9 186 23 402 39
471 36 1138 16 1625 -48 22 -3 58 -8 80 -11 22 -2 56 -7 75 -10 19 -3 53 -8
75 -10 36 -5 55 -8 130 -20 11 -2 31 -6 45 -10 14 -3 41 -8 60 -11 46 -8 65
-12 65 -14 0 -2 17 -6 55 -14 14 -3 36 -8 50 -12 14 -3 30 -6 35 -7 6 -2 16
-6 23 -10 6 -5 12 -6 12 -3 0 3 18 -1 40 -9 22 -8 42 -14 45 -15 3 0 7 -1 10
-1 3 -1 8 -2 13 -3 4 -1 41 -13 82 -26 41 -13 77 -25 80 -25 3 -1 13 -5 22 -9
9 -4 22 -9 30 -10 7 -1 23 -8 36 -14 12 -7 27 -10 32 -7 6 3 10 1 10 -5 0 -6
4 -9 9 -6 5 4 11 2 13 -4 1 -5 13 -11 25 -13 12 -2 26 -6 29 -10 4 -4 16 -7
26 -7 10 0 18 -4 18 -9 0 -5 10 -11 23 -14 36 -8 91 -31 98 -41 4 -5 12 -5 19
-1 9 5 11 4 6 -3 -6 -11 12 -17 37 -13 4 0 7 -3 7 -8 0 -8 27 -19 40 -17 3 1
20 -9 38 -22 17 -13 32 -20 32 -17 0 4 7 -1 16 -9 8 -9 20 -14 25 -11 5 4 9 1
9 -5 0 -6 4 -9 9 -5 5 3 12 1 15 -4 3 -5 22 -18 42 -30 19 -12 32 -15 28 -9
-5 7 7 1 25 -15 18 -15 37 -25 42 -21 5 3 9 1 9 -4 0 -8 67 -44 73 -39 1 1 13
-8 26 -20 13 -12 27 -20 31 -18 5 3 10 -2 14 -10 3 -8 12 -15 19 -15 8 0 20
-7 27 -15 7 -8 16 -13 20 -10 5 3 10 2 12 -3 1 -4 28 -24 58 -44 30 -20 77
-52 104 -72 27 -19 54 -32 59 -29 6 3 7 1 4 -4 -6 -10 6 -20 26 -21 5 0 16 -9
25 -19 29 -31 66 -59 57 -43 -5 8 7 0 27 -19 20 -18 40 -34 44 -35 5 0 23 -14
40 -31 17 -16 59 -50 92 -75 34 -25 61 -48 61 -52 1 -5 8 -8 17 -8 8 0 12 -4
9 -10 -3 -5 0 -10 7 -10 7 0 19 -9 26 -21 7 -12 15 -19 18 -16 3 2 27 -18 53
-44 27 -27 54 -49 60 -49 6 0 11 -7 11 -15 0 -8 5 -15 10 -15 6 0 27 -18 49
-40 21 -22 43 -40 47 -40 5 0 18 -14 29 -30 11 -16 23 -30 27 -30 12 0 56 -48
50 -54 -3 -3 0 -6 6 -6 9 0 122 -107 122 -116 0 -1 31 -34 70 -73 38 -39 66
-71 62 -71 -4 -1 3 -6 15 -13 12 -7 22 -16 23 -22 1 -5 6 -9 12 -7 5 1 7 -2 3
-7 -3 -6 3 -16 15 -23 11 -7 20 -19 20 -26 0 -7 5 -10 10 -7 6 3 10 1 10 -6 0
-7 16 -27 35 -45 18 -19 31 -34 28 -34 -3 0 12 -18 35 -40 22 -22 37 -40 34
-40 -4 0 2 -7 12 -15 11 -8 16 -15 10 -15 -5 0 4 -11 20 -25 16 -14 26 -25 22
-25 -4 0 10 -17 31 -37 21 -20 31 -33 23 -29 -8 4 -5 -1 8 -12 12 -11 22 -24
22 -29 0 -5 8 -16 18 -25 9 -9 33 -38 52 -65 19 -26 43 -55 52 -64 10 -9 18
-21 18 -26 0 -6 10 -18 23 -27 12 -9 15 -14 7 -10 -8 4 -4 -6 10 -22 14 -16
28 -30 33 -32 4 -2 5 -8 1 -13 -3 -5 2 -12 10 -15 9 -3 16 -13 16 -20 0 -8 7
-17 15 -20 8 -4 12 -10 9 -15 -3 -5 -1 -9 3 -9 5 0 23 -22 41 -50 18 -27 37
-50 43 -50 6 0 8 -4 5 -9 -5 -8 57 -98 77 -112 5 -3 9 -10 9 -15 1 -9 18 -39
45 -79 7 -11 25 -38 40 -60 14 -22 31 -43 37 -47 6 -4 8 -8 3 -8 -6 0 38 -75
53 -90 10 -10 31 -45 36 -62 4 -10 10 -18 15 -18 5 0 9 -7 9 -15 0 -8 5 -15
10 -15 6 0 10 -6 10 -14 0 -8 7 -22 16 -30 8 -9 12 -16 7 -16 -4 0 -1 -5 7
-10 8 -5 15 -13 15 -17 2 -23 18 -53 26 -48 5 4 9 -2 9 -13 0 -11 9 -31 20
-45 11 -14 20 -30 20 -37 0 -6 5 -8 10 -5 6 3 10 0 10 -8 0 -16 81 -160 92
-165 5 -2 8 -10 8 -17 0 -8 14 -36 30 -62 17 -26 30 -53 30 -61 0 -7 5 -10 10
-7 6 3 10 -5 10 -19 0 -14 7 -29 16 -34 9 -5 15 -12 15 -15 -2 -14 42 -97 51
-97 5 0 6 -4 3 -10 -3 -5 -1 -10 6 -10 7 0 10 -3 6 -6 -5 -6 64 -145 85 -171
6 -7 7 -13 2 -13 -4 0 1 -7 12 -16 10 -8 13 -12 6 -9 -8 4 -2 -11 12 -34 15
-23 23 -41 19 -41 -5 0 -1 -6 7 -13 8 -7 16 -19 18 -27 7 -30 35 -80 45 -80 6
0 7 -3 4 -6 -3 -4 -1 -16 5 -28 7 -11 13 -23 13 -26 5 -22 51 -110 57 -110 5
0 7 -4 3 -9 -3 -5 1 -15 8 -23 8 -7 12 -19 9 -26 -2 -6 1 -12 7 -12 6 0 11 -9
11 -19 0 -11 6 -26 13 -33 6 -7 13 -20 15 -28 2 -8 7 -17 10 -20 4 -3 8 -10 9
-15 1 -6 15 -40 32 -77 17 -36 31 -71 31 -77 0 -6 5 -11 12 -11 6 0 8 -3 5 -7
-4 -3 1 -15 10 -26 10 -11 12 -17 6 -13 -8 4 -6 -6 5 -26 9 -18 20 -35 25 -36
4 -2 5 -8 1 -13 -3 -5 -1 -9 5 -9 6 0 8 -7 5 -15 -4 -8 -1 -15 5 -15 6 0 11
-9 11 -20 0 -11 5 -20 10 -20 6 0 9 -3 8 -7 -2 -5 6 -28 16 -53 11 -25 20 -51
22 -59 1 -8 9 -18 16 -22 7 -5 9 -9 4 -9 -5 0 -3 -6 3 -13 6 -8 8 -17 4 -20
-3 -4 -1 -7 5 -7 7 0 11 -3 11 -7 -1 -5 0 -11 1 -15 1 -5 3 -11 5 -15 1 -5 7
-21 14 -38 7 -16 12 -32 12 -35 0 -3 7 -15 15 -27 8 -13 11 -23 8 -23 -4 0 1
-10 12 -22 12 -13 13 -18 4 -13 -9 5 -8 0 4 -13 11 -12 16 -22 11 -22 -4 0 -2
-6 4 -13 6 -8 8 -16 5 -19 -3 -3 3 -5 13 -4 9 0 18 -6 18 -14 1 -8 5 -24 9
-35 15 -38 19 -50 20 -57 1 -3 4 -10 9 -14 4 -4 7 -16 7 -26 0 -10 4 -18 10
-18 5 0 7 -7 4 -15 -4 -8 -1 -15 7 -15 7 0 9 -3 6 -7 -4 -3 -2 -12 4 -20 6 -7
9 -13 6 -13 -3 0 2 -19 12 -42 28 -65 34 -81 38 -102 2 -11 8 -25 13 -31 5 -7
7 -15 3 -18 -3 -4 -1 -7 5 -7 7 0 11 -3 10 -7 -4 -17 14 -73 23 -73 6 0 8 -4
5 -9 -3 -5 0 -24 8 -42 7 -19 17 -43 21 -54 4 -11 10 -29 12 -40 2 -10 9 -23
16 -27 6 -4 9 -8 5 -8 -3 0 5 -30 18 -67 13 -38 24 -76 24 -86 0 -10 4 -15 10
-12 6 3 7 -1 4 -9 -3 -9 -1 -16 6 -16 6 0 8 -5 5 -10 -4 -6 -1 -17 5 -25 7 -8
9 -15 5 -15 -4 0 -2 -7 5 -15 7 -8 9 -15 5 -15 -4 0 -2 -7 5 -15 7 -8 10 -15
6 -15 -4 0 0 -13 9 -30 8 -16 15 -32 15 -35 1 -19 14 -65 19 -65 4 0 8 -12 9
-27 1 -16 6 -29 12 -31 5 -2 6 -10 3 -18 -3 -8 0 -14 6 -14 6 0 8 -7 5 -15 -4
-8 -1 -15 6 -15 6 0 9 -3 6 -8 -2 -4 9 -47 25 -96 16 -49 29 -95 29 -102 0 -8
4 -14 8 -14 4 0 9 -12 10 -26 1 -14 5 -31 9 -37 8 -12 10 -19 16 -49 2 -10 6
-21 10 -24 4 -4 7 -18 7 -31 0 -12 3 -23 8 -23 4 0 8 -11 8 -24 1 -14 8 -38
16 -53 8 -16 14 -37 12 -46 -1 -9 1 -17 5 -17 4 0 8 -6 9 -12 1 -15 10 -52 12
-55 2 -2 4 -7 5 -13 1 -5 3 -11 5 -12 1 -2 3 -11 5 -21 2 -9 15 -54 29 -100
14 -45 28 -95 32 -112 4 -16 10 -34 14 -40 4 -5 6 -18 5 -27 -2 -10 2 -18 8
-18 5 0 7 -3 4 -6 -3 -4 -2 -14 3 -24 5 -9 12 -32 15 -50 3 -18 9 -38 12 -44
4 -6 8 -17 9 -26 3 -20 12 -55 14 -55 1 0 3 -11 6 -24 2 -14 9 -30 14 -36 5
-7 8 -14 5 -17 -3 -2 0 -20 6 -39 15 -49 20 -72 21 -86 1 -7 6 -13 11 -13 6 0
8 -3 5 -6 -4 -3 -2 -20 4 -37 5 -18 11 -39 13 -47 2 -8 4 -17 5 -20 1 -3 2 -8
2 -11 -1 -3 6 -28 14 -55 9 -27 18 -60 20 -72 3 -13 12 -49 20 -80 8 -32 17
-68 20 -81 3 -14 7 -28 10 -33 3 -5 8 -21 11 -36 8 -41 11 -57 13 -57 1 0 3
-11 6 -25 2 -14 7 -32 11 -40 3 -8 7 -24 9 -35 10 -51 12 -60 13 -60 2 0 4
-11 7 -25 2 -14 7 -32 11 -40 3 -8 7 -22 8 -30 5 -29 13 -65 25 -110 7 -25 14
-54 16 -65 2 -11 7 -33 11 -50 4 -16 6 -33 5 -37 -1 -5 2 -8 6 -8 7 0 11 -17
13 -62 0 -10 4 -20 9 -23 5 -3 7 -12 4 -19 -3 -8 0 -17 5 -21 6 -3 9 -10 7
-14 -3 -4 -1 -25 5 -46 17 -61 21 -79 22 -102 1 -13 5 -23 11 -23 5 0 7 -3 4
-6 -3 -3 0 -31 8 -63 7 -32 15 -69 18 -82 3 -13 8 -35 11 -49 3 -14 8 -38 11
-55 3 -16 8 -37 11 -45 3 -8 7 -24 8 -35 2 -11 5 -31 9 -45 13 -57 20 -86 21
-95 1 -5 3 -12 4 -15 1 -3 4 -16 6 -30 5 -28 12 -62 15 -70 1 -3 2 -9 1 -13
-1 -5 3 -25 8 -45 6 -20 12 -48 15 -62 3 -14 8 -36 11 -50 3 -14 7 -41 10 -60
3 -19 9 -50 14 -68 5 -18 10 -35 10 -37 0 -6 12 -73 18 -100 2 -11 6 -31 9
-45 3 -14 7 -34 9 -45 2 -11 6 -33 9 -50 3 -16 9 -46 13 -65 3 -19 8 -42 10
-50 2 -8 6 -28 7 -45 2 -16 5 -30 6 -30 1 0 3 -9 5 -20 10 -69 15 -99 31 -175
9 -47 18 -94 19 -105 1 -11 3 -20 4 -20 2 0 5 -18 7 -40 7 -58 12 -90 14 -90
3 0 9 -39 12 -73 1 -18 5 -35 9 -37 3 -3 5 -16 4 -30 -2 -14 0 -25 5 -25 4 0
6 -13 4 -30 -2 -16 0 -30 4 -30 4 0 8 -12 8 -27 3 -52 8 -88 13 -98 3 -5 6
-21 7 -35 6 -52 13 -106 19 -130 3 -14 8 -41 10 -60 2 -19 6 -51 9 -70 3 -19
8 -51 10 -70 2 -19 7 -46 10 -60 3 -14 8 -45 11 -70 5 -41 9 -76 20 -155 3
-16 7 -50 10 -75 3 -25 8 -61 11 -80 3 -19 7 -51 10 -70 2 -19 6 -53 9 -75 3
-22 7 -53 9 -70 8 -57 18 -140 22 -185 3 -25 7 -56 9 -70 5 -34 13 -103 20
-170 10 -96 15 -144 20 -180 5 -38 14 -121 20 -185 10 -109 17 -183 21 -215 4
-34 7 -57 19 -200 3 -36 8 -90 11 -120 2 -30 7 -77 9 -105 2 -27 6 -81 10
-120 3 -38 8 -99 11 -135 5 -80 13 -185 19 -265 8 -113 15 -220 20 -300 11
-186 16 -279 30 -580 3 -55 7 -172 10 -260 2 -88 5 -160 6 -160 12 0 16 -1457
5 -1850 -11 -417 -24 -712 -41 -960 -3 -49 -8 -126 -11 -170 -3 -44 -7 -109
-9 -145 -5 -63 -7 -94 -19 -265 -4 -44 -9 -100 -11 -125 -3 -25 -8 -76 -10
-115 -2 -38 -7 -95 -10 -125 -4 -30 -8 -77 -10 -105 -2 -27 -4 -50 -5 -50 -1
0 -3 -18 -5 -40 -3 -49 -15 -169 -20 -210 -3 -16 -7 -55 -10 -85 -3 -30 -7
-75 -10 -100 -12 -92 -26 -219 -30 -255 -1 -16 -4 -30 -5 -30 -1 0 -3 -16 -5
-35 -2 -19 -6 -55 -10 -80 -3 -25 -7 -58 -9 -75 -6 -53 -17 -129 -22 -155 -2
-14 -6 -43 -9 -65 -2 -22 -7 -56 -11 -75 -3 -19 -8 -51 -9 -70 -2 -19 -4 -35
-5 -35 -2 0 -9 -48 -14 -100 -3 -22 -6 -40 -7 -40 -2 0 -3 -6 -13 -85 -4 -25
-8 -56 -11 -70 -2 -14 -7 -47 -11 -75 -7 -56 -11 -79 -14 -82 -2 -2 -4 -16 -5
-33 -1 -16 -4 -31 -5 -32 -4 -4 -10 -48 -13 -85 -1 -18 -4 -33 -7 -33 -3 0 -6
-8 -6 -17 -1 -19 -8 -62 -30 -186 -2 -10 -5 -26 -8 -35 -3 -9 -7 -35 -10 -57
-4 -22 -9 -53 -13 -70 -3 -16 -7 -39 -8 -50 -1 -11 -6 -33 -10 -50 -5 -16 -9
-41 -11 -55 -1 -14 -3 -25 -4 -25 -2 0 -8 -30 -14 -70 -3 -16 -8 -41 -11 -55
-3 -14 -8 -36 -10 -50 -2 -14 -9 -47 -15 -75 -14 -69 -20 -97 -25 -120 -2 -11
-7 -31 -10 -45 -3 -14 -8 -39 -10 -56 -3 -17 -9 -44 -15 -58 -5 -15 -9 -30 -9
-34 1 -4 0 -9 -1 -12 -2 -6 -6 -25 -13 -65 -3 -16 -9 -41 -12 -55 -3 -14 -8
-36 -11 -50 -3 -14 -9 -39 -15 -57 -5 -17 -12 -44 -15 -60 -3 -15 -23 -102
-45 -193 -23 -91 -42 -172 -44 -180 -2 -8 -7 -26 -12 -40 -5 -14 -9 -32 -8
-40 1 -8 -3 -20 -7 -26 -5 -7 -10 -26 -11 -43 -1 -17 -4 -31 -7 -31 -4 0 -12
-28 -20 -62 -7 -35 -14 -67 -16 -73 -1 -5 -10 -37 -19 -70 -9 -33 -18 -68 -20
-78 -2 -9 -6 -21 -9 -25 -3 -5 -8 -22 -11 -38 -10 -47 -10 -48 -18 -61 -5 -7
-6 -13 -2 -13 3 0 1 -9 -5 -20 -12 -23 2 -27 20 -5 7 8 16 13 20 10 4 -3 11 2
14 11 4 9 9 14 12 11 7 -6 105 51 116 67 4 6 8 8 8 3 0 -4 17 3 38 16 20 12
49 29 65 36 15 8 27 18 27 23 0 5 4 7 9 3 5 -3 12 -1 16 5 3 5 21 17 40 26 19
9 35 21 35 26 0 5 4 7 10 3 5 -3 18 3 30 15 11 11 22 20 25 20 3 0 9 0 13 0 5
0 18 9 30 20 12 12 22 18 22 15 0 -8 94 47 98 57 2 4 9 8 16 8 8 0 25 9 38 20
14 10 28 17 31 13 4 -3 9 2 13 11 3 9 10 14 14 11 5 -3 19 5 31 17 12 13 18
16 14 9 -6 -10 1 -9 21 5 48 32 68 44 84 51 8 3 30 17 47 30 18 13 33 21 33
17 0 -4 11 3 25 16 14 13 25 20 25 15 0 -4 9 0 20 10 11 10 20 14 20 9 0 -5 5
-1 11 9 6 9 14 15 18 13 4 -3 17 2 27 12 11 9 26 18 34 20 8 2 17 7 20 11 3 4
30 21 60 37 30 16 57 32 60 35 3 4 15 9 28 13 12 4 22 12 22 17 0 6 5 7 10 4
6 -3 13 1 16 9 3 9 10 13 15 11 4 -3 17 3 29 15 11 11 20 17 20 14 0 -3 14 3
30 13 17 9 30 21 30 26 0 4 4 6 8 3 5 -3 25 6 45 19 20 14 39 25 43 25 4 0 13
8 21 17 8 11 11 12 7 3 -7 -13 -6 -13 12 0 10 8 22 19 25 23 3 5 9 8 13 8 19
-3 27 0 22 7 -3 5 0 9 7 9 7 0 31 12 55 27 24 15 54 31 67 36 14 5 25 14 25
20 0 6 5 8 10 5 6 -3 10 -1 10 4 0 6 3 10 8 10 20 -3 32 2 26 13 -4 6 -3 8 4
4 6 -3 17 0 24 8 8 7 24 17 36 20 12 4 22 12 22 18 0 6 3 8 6 5 4 -4 19 2 33
12 14 10 43 26 64 36 20 9 37 22 37 27 0 5 5 6 10 3 6 -3 10 -2 10 4 0 5 16
15 35 21 19 6 39 19 45 28 5 9 10 14 10 9 0 -4 18 4 40 18 22 14 43 25 46 25
4 0 13 8 21 18 8 9 11 11 8 4 -6 -11 -3 -11 14 0 12 7 21 16 21 21 0 4 4 6 9
2 6 -3 14 3 20 12 5 10 13 17 18 17 13 -2 37 9 45 20 3 5 15 11 24 12 10 2 24
11 31 20 7 10 13 15 13 11 0 -4 14 -1 30 8 17 9 30 20 30 26 0 6 4 8 9 4 6 -3
20 5 32 17 12 13 18 16 14 8 -8 -13 -7 -13 11 0 10 8 22 19 25 23 3 5 9 8 13
8 19 -3 27 0 22 7 -3 5 0 9 7 9 7 0 30 11 52 24 22 13 52 31 68 38 15 8 27 18
27 23 0 5 5 6 10 3 6 -3 10 -1 10 5 0 6 4 9 9 5 5 -3 12 -1 15 4 6 9 83 54
159 93 20 10 37 23 37 28 0 6 3 9 8 8 12 -3 82 35 82 44 0 5 4 7 9 4 4 -3 19
3 32 14 37 31 44 35 59 38 8 2 18 9 22 15 4 7 8 8 8 4 0 -5 13 1 29 12 16 12
34 21 40 21 6 0 11 5 11 11 0 5 5 7 10 4 6 -3 13 1 16 9 3 9 10 13 15 11 4 -3
17 2 27 12 10 10 25 19 33 21 8 2 16 8 17 13 2 5 8 7 13 3 5 -3 9 -1 9 4 0 6
11 13 25 16 14 4 25 11 25 16 0 6 6 10 14 10 8 0 22 7 30 16 9 8 16 13 16 9 0
-3 13 3 29 14 16 12 33 21 39 21 5 0 15 7 22 15 7 8 16 12 21 9 5 -3 9 -1 9 4
0 5 14 15 30 22 17 7 30 17 30 22 0 5 4 7 9 4 5 -3 14 1 21 9 7 8 16 15 21 15
5 0 38 18 74 40 36 22 69 40 74 40 5 0 14 7 21 15 7 8 21 15 32 15 10 0 21 7
24 15 4 8 10 12 15 9 5 -3 9 0 9 5 0 6 7 11 15 11 8 0 15 5 15 11 0 5 4 8 9 5
5 -3 14 1 21 9 7 8 19 15 27 15 7 0 16 6 19 14 3 8 11 13 17 10 7 -2 24 7 40
21 15 14 27 23 27 20 0 -8 72 35 81 48 3 5 8 8 10 7 11 -4 59 21 59 31 0 7 3
9 6 6 4 -4 19 2 34 13 16 11 31 20 35 20 4 0 18 9 32 20 14 11 29 17 34 14 5
-3 12 2 15 10 3 9 10 13 15 10 5 -3 9 0 9 5 0 6 6 11 14 11 7 0 19 7 26 15 7
8 16 13 20 10 4 -3 13 2 20 10 7 8 19 15 27 15 7 0 16 7 19 15 4 8 10 13 14
10 5 -3 15 1 23 9 8 8 17 12 21 9 3 -3 8 2 12 11 3 9 9 14 14 11 4 -2 16 4 26
14 11 9 25 16 32 13 6 -2 12 1 12 7 0 6 7 11 15 11 8 0 15 3 15 8 0 4 15 14
33 21 17 8 38 22 45 30 11 13 12 13 7 1 -4 -8 1 -6 9 4 9 11 16 16 16 11 0 -4
8 -2 18 6 9 8 34 24 55 34 20 11 37 23 37 28 0 4 5 5 10 2 6 -3 13 1 16 9 3 9
10 14 14 11 4 -3 24 6 44 20 20 14 41 25 46 25 6 0 10 5 10 11 0 5 4 8 9 4 6
-3 14 3 20 12 6 10 11 14 11 9 0 -4 11 -1 25 8 13 9 46 28 72 43 26 14 51 30
54 35 3 6 8 8 11 6 3 -1 30 14 62 34 31 20 53 32 50 26 -4 -6 8 0 27 13 19 13
36 27 37 32 2 4 8 5 13 1 5 -3 9 0 9 7 0 7 3 9 6 6 4 -3 18 3 32 13 13 11 29
20 35 20 6 0 22 10 35 23 14 12 22 15 17 7 -4 -8 7 -1 25 15 18 17 29 23 25
15 -5 -8 7 -4 26 10 18 14 46 31 62 38 15 6 27 16 27 22 0 5 3 9 8 8 12 -3 62
25 62 34 0 5 4 7 9 4 5 -3 14 1 21 9 7 8 16 12 21 9 5 -3 9 0 9 5 0 6 7 11 15
11 9 0 18 6 21 14 3 8 12 12 20 9 8 -3 14 -1 14 5 0 5 14 15 30 22 17 7 30 16
30 21 0 5 3 8 8 7 12 -4 82 34 82 44 0 5 4 7 9 3 6 -3 14 2 19 11 5 9 12 16
15 16 16 0 47 11 47 17 0 3 15 13 33 20 37 16 109 62 118 74 3 5 8 8 10 7 8
-4 59 24 59 32 0 4 3 7 8 7 20 -3 33 2 27 11 -4 6 -3 9 2 8 12 -4 83 35 83 45
0 4 4 6 10 2 5 -3 18 2 28 12 10 10 25 19 33 21 7 2 17 8 20 14 3 5 10 9 15 9
5 -1 16 4 25 11 8 7 21 14 27 16 7 1 35 18 63 38 28 20 48 30 44 24 -8 -13 29
9 81 47 17 13 34 20 37 17 4 -4 9 1 13 10 3 9 9 14 14 11 4 -2 18 6 31 18 13
12 24 20 24 19 0 -8 55 22 55 30 0 4 3 7 8 6 11 -2 46 14 54 26 4 6 11 11 15
12 18 1 63 28 63 37 0 6 3 8 6 4 3 -3 34 12 69 34 34 21 66 39 72 39 5 0 19 9
31 20 12 12 22 18 22 15 0 -4 15 4 33 17 17 13 35 24 40 24 4 1 12 2 18 3 5 0
7 6 3 13 -4 6 -3 8 4 4 6 -3 18 2 28 11 10 10 19 16 20 13 2 -3 12 2 22 10 10
8 25 16 32 18 8 2 20 11 28 20 9 12 12 13 7 2 -4 -8 3 -5 14 8 11 13 23 22 27
20 12 -4 142 105 149 125 4 9 9 16 13 14 4 -2 23 14 42 37 19 22 28 36 20 31
-8 -4 -4 4 10 18 38 40 55 62 58 76 1 7 9 20 17 28 14 13 17 21 14 40 0 3 6
10 15 15 9 5 16 14 16 21 0 6 9 34 19 62 31 80 35 89 37 100 1 6 3 12 4 15 2
5 6 23 18 80 10 48 8 13752 -2 13815 -4 27 -14 61 -22 76 -7 15 -11 29 -8 32
3 3 2 12 -2 19 -5 7 -9 15 -9 18 -3 23 -29 80 -36 80 -6 0 -8 4 -4 9 3 5 -2
16 -10 24 -8 9 -15 23 -15 31 0 9 -5 16 -11 16 -5 0 -8 4 -4 9 3 5 -2 16 -10
24 -8 9 -15 20 -15 26 0 5 -8 15 -17 20 -10 6 -14 11 -10 11 8 0 -1 13 -35 50
-9 10 -25 31 -34 45 -10 15 -28 31 -41 36 -13 5 -23 16 -23 25 0 10 -2 15 -5
12 -3 -3 -24 12 -46 33 -23 21 -46 36 -50 33 -5 -3 -9 -1 -9 4 0 11 -71 57
-82 54 -5 -1 -8 3 -8 9 0 5 -4 7 -10 4 -5 -3 -10 -2 -10 3 0 5 -18 17 -40 28
-22 10 -40 22 -40 25 0 3 -16 11 -35 19 -19 8 -35 18 -35 24 0 5 -3 6 -7 3 -3
-4 -18 3 -31 15 -14 13 -22 16 -18 8 6 -12 5 -12 -6 1 -7 8 -20 18 -28 22 -8
4 -28 16 -45 26 -16 11 -38 20 -48 20 -10 1 -16 5 -13 9 2 4 -18 18 -45 31
-27 13 -49 28 -49 33 0 5 -6 8 -12 6 -7 -3 -21 4 -32 14 -11 10 -42 28 -68 40
-26 12 -48 24 -48 27 0 4 -15 13 -32 20 -18 8 -39 21 -46 28 -8 7 -18 11 -23
8 -5 -4 -9 -1 -9 4 0 6 -7 11 -15 11 -8 0 -15 5 -15 10 0 6 -5 10 -11 10 -6 0
-31 14 -56 30 -24 17 -47 30 -51 30 -5 0 -32 15 -62 34 -30 19 -58 32 -62 30
-5 -3 -8 0 -8 6 0 6 -12 16 -27 23 -16 6 -43 22 -62 34 -18 13 -37 21 -41 18
-4 -3 -11 2 -14 11 -3 8 -10 12 -16 9 -5 -3 -10 -1 -10 5 0 6 -4 8 -10 5 -5
-3 -10 -1 -10 5 0 9 -48 34 -59 30 -2 -1 -8 5 -13 14 -5 9 -15 16 -22 16 -6 0
-27 11 -46 25 -18 13 -37 22 -41 19 -5 -3 -9 0 -9 6 0 6 -4 9 -9 6 -5 -3 -11
1 -15 9 -3 8 -10 15 -16 15 -6 0 -31 14 -55 30 -24 17 -51 30 -59 30 -9 0 -16
3 -16 8 0 4 -21 18 -47 32 -27 13 -50 27 -53 30 -3 3 -18 12 -35 20 -16 8 -32
18 -35 22 -3 3 -12 8 -20 10 -8 2 -23 11 -34 20 -10 10 -23 15 -28 12 -4 -3
-8 -1 -8 4 0 7 -68 45 -80 44 -3 -1 -14 8 -26 19 -11 10 -24 16 -27 12 -4 -3
-7 -2 -7 3 0 5 -17 18 -37 29 -21 10 -45 25 -53 31 -8 7 -22 14 -30 16 -8 2
-23 11 -34 21 -12 10 -31 20 -43 23 -13 4 -23 10 -23 16 0 5 -4 6 -10 3 -5 -3
-10 -2 -10 4 0 5 -10 13 -22 17 -13 4 -25 10 -28 13 -12 16 -62 42 -55 30 4
-8 1 -8 -7 1 -17 21 -108 73 -108 63 0 -4 -4 -3 -8 3 -8 13 -88 62 -114 71
-10 3 -18 10 -18 15 0 5 -4 6 -10 3 -5 -3 -10 -2 -10 4 0 9 -40 27 -48 22 -2
-1 -12 7 -22 19 -11 13 -24 19 -31 14 -8 -4 -9 -3 -5 4 5 8 0 12 -13 12 -12 0
-21 4 -21 10 0 5 -11 12 -25 16 -14 3 -25 10 -25 15 0 5 -5 9 -12 9 -6 0 -20
8 -31 18 -15 12 -19 13 -13 2 4 -9 2 -8 -7 3 -8 9 -18 17 -22 17 -4 0 -20 9
-36 21 -16 11 -29 17 -29 13 0 -4 -9 2 -21 14 -11 12 -24 20 -30 17 -5 -4 -9
-1 -9 6 0 7 -3 10 -6 6 -3 -3 -18 5 -33 19 -14 13 -32 22 -39 19 -7 -2 -15 2
-18 10 -4 8 -11 15 -18 15 -6 0 -35 16 -65 36 -29 20 -50 30 -47 23 4 -8 1 -6
-7 4 -8 9 -22 17 -31 17 -10 0 -15 4 -12 8 4 6 -47 35 -64 36 -3 0 -12 6 -20
13 -8 7 -19 13 -24 12 -5 0 -12 3 -15 8 -12 16 -73 55 -78 49 -3 -2 -14 4 -26
15 -11 10 -29 19 -39 19 -11 0 -16 5 -13 10 3 6 1 11 -4 11 -6 1 -16 2 -21 3
-6 0 -15 8 -20 16 -5 8 -12 12 -15 8 -4 -3 -15 2 -26 13 -11 11 -24 17 -29 14
-6 -4 -10 -2 -10 3 0 5 -16 17 -35 26 -19 9 -37 21 -40 26 -3 6 -15 10 -26 10
-13 0 -18 4 -13 12 5 7 2 9 -9 5 -9 -3 -18 0 -21 9 -3 8 -10 14 -17 14 -6 0
-22 9 -36 20 -14 11 -29 17 -34 14 -5 -3 -9 -1 -9 4 0 4 -20 19 -45 31 -24 12
-47 26 -50 32 -4 5 -11 7 -16 4 -5 -4 -9 -1 -9 4 0 6 -7 11 -15 11 -8 0 -15 5
-15 12 0 6 -3 9 -6 5 -4 -3 -22 5 -40 20 -19 14 -34 21 -34 17 0 -5 -4 -4 -8
2 -12 17 -79 54 -85 47 -4 -3 -7 0 -7 7 0 7 -3 10 -7 7 -3 -4 -11 0 -17 8 -6
7 -18 15 -26 17 -8 2 -23 11 -34 21 -11 9 -26 17 -33 17 -7 0 -13 3 -13 8 0 4
-17 15 -37 25 -49 23 -77 39 -99 57 -16 13 -17 13 -10 0 6 -11 4 -11 -6 1 -15
18 -79 54 -90 51 -5 -1 -8 2 -8 7 0 5 -17 18 -37 29 -21 10 -56 30 -78 42 -22
13 -58 33 -80 44 -22 12 -46 27 -53 34 -8 7 -18 10 -23 7 -5 -4 -9 -1 -9 5 0
6 -12 16 -27 23 -16 6 -34 17 -41 24 -8 7 -18 11 -23 8 -5 -4 -9 -1 -9 5 0 6
-5 8 -10 5 -5 -3 -10 -2 -10 4 0 5 -12 16 -27 24 -44 22 -107 58 -119 68 -6 5
-14 6 -17 2 -4 -3 -7 -1 -7 6 0 7 -4 10 -9 7 -5 -3 -12 1 -15 10 -3 8 -10 13
-15 10 -5 -4 -11 -2 -13 3 -1 5 -10 11 -18 13 -8 2 -23 11 -34 20 -10 10 -23
15 -28 12 -4 -3 -8 -1 -8 3 0 5 -17 17 -37 28 -21 11 -41 24 -45 30 -4 5 -8 6
-8 2 0 -5 -7 -1 -16 7 -8 9 -20 14 -25 11 -5 -4 -9 -2 -9 4 0 6 -17 18 -37 28
-21 9 -40 19 -43 22 -3 4 -18 13 -35 21 -16 8 -32 17 -35 20 -8 8 -43 29 -70
42 -14 7 -31 18 -38 25 -17 17 -25 17 -17 1 4 -7 -1 -4 -9 6 -9 11 -16 16 -16
12 0 -4 -16 5 -35 20 -19 14 -35 23 -35 20 0 -4 -10 2 -22 13 -11 11 -25 18
-30 15 -4 -3 -8 -1 -8 3 0 5 -9 14 -21 21 -17 11 -20 11 -14 0 5 -7 -2 -3 -14
10 -12 12 -28 22 -36 22 -8 0 -15 5 -15 10 0 6 -6 10 -14 10 -7 0 -25 9 -40
21 -14 11 -26 17 -26 12 0 -4 -4 -3 -8 2 -4 6 -16 17 -26 25 -18 13 -19 13
-12 0 5 -10 3 -9 -6 2 -8 9 -21 18 -29 20 -7 2 -20 10 -27 18 -12 13 -13 13
-7 0 4 -8 -1 -6 -9 4 -9 11 -16 16 -16 10 0 -5 -4 -4 -8 1 -11 16 -132 85
-148 85 -8 0 -12 5 -9 10 3 6 2 10 -4 10 -5 0 -48 23 -96 50 -48 28 -89 50
-92 50 -2 0 -11 7 -20 15 -8 8 -19 13 -24 10 -5 -4 -9 -1 -9 4 0 6 -7 11 -15
11 -8 0 -15 5 -15 10 0 6 -5 10 -11 10 -6 0 -24 9 -40 21 -16 11 -29 17 -29
12 0 -4 -4 -3 -8 3 -4 7 -29 24 -57 40 -27 15 -66 36 -85 47 -19 11 -48 29
-64 40 -19 13 -27 16 -22 6 6 -11 5 -11 -6 1 -7 8 -22 22 -32 30 -18 13 -19
13 -11 0 4 -8 -3 -5 -17 8 -13 12 -29 22 -35 22 -6 0 -16 7 -23 15 -7 8 -21
15 -32 15 -10 0 -17 4 -14 8 3 5 -11 14 -30 21 -18 7 -34 17 -34 23 0 5 -7 7
-16 4 -8 -3 -12 -2 -9 4 3 6 1 10 -5 10 -6 0 -28 11 -50 25 -22 14 -40 22 -40
18 0 -5 -6 -1 -13 7 -16 20 -77 54 -77 43 0 -4 -5 0 -11 10 -6 9 -14 15 -20
12 -5 -4 -9 -2 -9 4 0 6 -17 19 -37 29 -68 34 -157 85 -182 104 -13 10 -30 18
-37 18 -8 0 -14 4 -14 9 0 7 -36 22 -49 20 -2 0 -7 3 -10 8 -9 13 -81 56 -81
48 0 -3 -10 3 -22 14 -11 11 -25 18 -30 15 -4 -3 -8 0 -8 6 0 9 -43 31 -60 31
-3 0 -9 7 -13 15 -5 8 -12 12 -18 9 -5 -4 -9 -2 -9 2 0 5 -9 14 -21 21 -17 11
-20 11 -14 0 5 -7 -2 -3 -14 10 -12 12 -26 20 -32 17 -5 -4 -9 -2 -9 2 0 12
-56 44 -64 36 -3 -3 -6 -1 -6 5 0 13 -60 47 -60 35 0 -5 -5 0 -11 10 -6 9 -14
15 -20 12 -5 -4 -9 -1 -9 5 0 6 -4 8 -10 5 -5 -3 -10 -2 -10 3 0 8 -46 35 -63
36 -4 1 -11 6 -15 11 -4 6 -20 17 -37 25 -16 8 -36 21 -43 28 -8 7 -18 10 -23
7 -5 -4 -9 -1 -9 4 0 6 -7 11 -15 11 -8 0 -15 5 -15 10 0 6 -5 10 -10 10 -6 0
-28 11 -50 25 -22 14 -47 25 -56 25 -10 0 -14 3 -11 7 7 6 -57 46 -95 59 -10
4 -18 11 -18 16 0 5 -4 7 -9 4 -5 -3 -12 1 -15 10 -3 9 -13 14 -20 11 -8 -3
-16 -3 -18 1 -2 4 -18 18 -37 31 -19 13 -30 17 -26 10 4 -8 -2 -4 -14 9 -12
12 -26 20 -32 17 -5 -4 -9 -1 -9 6 0 7 -3 9 -7 6 -3 -4 -11 0 -17 8 -6 7 -18
15 -26 17 -8 2 -21 10 -28 18 -12 13 -13 13 -7 0 5 -12 4 -12 -7 1 -7 9 -40
31 -73 49 -33 18 -66 37 -72 43 -7 5 -13 6 -13 1 0 -5 -4 -4 -8 1 -12 17 -95
68 -87 53 5 -7 -2 -3 -14 10 -12 12 -26 20 -32 17 -5 -4 -9 -2 -9 4 0 6 -17
18 -37 28 -21 9 -40 19 -43 22 -3 4 -15 12 -27 19 -13 6 -33 18 -45 25 -13 6
-32 19 -42 27 -17 13 -18 13 -11 0 5 -8 -4 -2 -20 13 -16 15 -35 25 -42 23 -8
-3 -11 -1 -8 4 3 6 1 10 -4 10 -23 0 -27 2 -48 22 -13 12 -23 17 -23 12 0 -5
-4 -4 -8 3 -4 6 -14 13 -22 15 -8 2 -21 11 -29 21 -7 10 -20 16 -27 13 -8 -3
-17 1 -20 9 -4 8 -11 15 -17 15 -6 0 -19 8 -30 18 -15 12 -18 13 -12 2 5 -8
-11 1 -35 20 -24 19 -40 28 -35 20 4 -8 -4 -3 -20 13 -15 15 -36 27 -46 27 -9
0 -19 4 -21 9 -1 5 -10 11 -18 13 -8 2 -21 10 -28 18 -12 13 -13 13 -6 0 5
-11 2 -10 -12 3 -31 29 -95 68 -103 63 -4 -3 -15 4 -24 15 -9 10 -26 19 -37
19 -12 0 -18 5 -15 10 3 6 1 10 -6 10 -7 0 -21 8 -32 18 -15 12 -19 13 -13 2
7 -13 6 -13 -6 0 -7 8 -33 26 -58 39 -25 13 -52 30 -61 37 -8 8 -23 14 -32 14
-9 0 -17 4 -17 8 0 5 -18 17 -40 27 -22 10 -40 22 -40 28 0 5 -7 6 -16 3 -8
-3 -12 -2 -9 4 6 9 -8 14 -27 11 -5 0 -8 3 -8 7 0 10 -50 37 -62 34 -5 -1 -8
2 -8 6 0 10 -50 37 -62 34 -5 -1 -8 1 -8 6 0 4 -17 16 -37 27 -21 11 -44 26
-51 33 -8 7 -18 10 -23 7 -5 -4 -9 -2 -9 3 0 8 -57 39 -74 40 -5 0 -13 7 -18
16 -5 9 -18 16 -29 16 -11 0 -18 4 -15 8 3 5 -10 15 -29 22 -19 8 -35 18 -35
22 0 5 -4 6 -10 3 -5 -3 -10 -1 -10 5 0 6 -4 8 -10 5 -5 -3 -10 -2 -10 3 0 5
-8 12 -17 15 -18 6 -73 37 -83 47 -3 3 -18 12 -35 20 -16 8 -32 17 -35 20 -3
3 -18 12 -35 20 -16 8 -34 19 -40 23 -20 16 -161 96 -197 112 -21 10 -38 21
-38 25 0 7 -17 14 -43 18 -4 1 -15 8 -23 17 -9 8 -19 13 -24 10 -4 -3 -10 2
-14 10 -3 8 -12 12 -21 9 -8 -3 -15 -1 -15 6 0 6 -4 8 -10 5 -5 -3 -10 -1 -10
4 0 6 -10 11 -23 11 -13 0 -28 5 -35 12 -7 7 -12 8 -12 4 0 -5 -6 -4 -13 2 -7
6 -28 12 -45 14 -18 1 -32 6 -32 10 0 3 -8 7 -17 6 -10 0 -45 3 -78 7 -64 8
-194 13 -199 8z m7324 -5937 c30 -3 82 -8 115 -11 33 -3 71 -7 85 -9 14 -3 48
-8 75 -11 61 -8 138 -19 195 -29 14 -2 55 -11 93 -20 37 -9 71 -15 75 -14 4 0
14 -2 22 -5 8 -4 35 -11 60 -17 66 -15 73 -17 100 -28 14 -5 31 -7 38 -5 6 3
12 -1 12 -8 0 -7 3 -10 6 -7 3 4 37 -4 75 -17 38 -13 69 -22 69 -19 0 3 10 -2
22 -10 12 -9 28 -16 35 -16 6 0 24 -5 40 -12 15 -6 30 -12 33 -13 25 -8 48
-18 63 -26 10 -5 22 -7 27 -4 6 4 10 2 10 -3 0 -9 42 -28 64 -30 5 0 12 -5 15
-10 3 -6 13 -12 21 -14 8 -2 21 -9 28 -16 8 -7 18 -10 23 -7 5 4 9 1 9 -5 0
-6 4 -9 9 -6 5 4 11 3 13 -1 4 -10 128 -75 128 -67 0 3 7 -2 16 -10 8 -9 20
-14 25 -11 5 4 9 1 9 -5 0 -6 5 -8 10 -5 6 3 10 2 10 -4 0 -8 40 -27 48 -22 1
1 10 -5 18 -14 9 -8 20 -13 25 -10 5 4 9 1 9 -5 0 -6 14 -16 30 -21 17 -6 30
-16 30 -22 0 -6 3 -8 6 -4 4 3 26 -7 50 -23 23 -17 47 -30 53 -30 6 0 11 -4
11 -8 0 -5 12 -15 28 -23 15 -8 71 -45 125 -84 55 -38 106 -74 114 -80 9 -5
25 -19 37 -30 12 -11 34 -30 50 -41 55 -43 130 -111 207 -186 43 -43 83 -78
89 -78 6 0 9 -4 6 -8 -7 -11 30 -42 40 -34 4 4 4 2 1 -4 -4 -7 9 -26 28 -43
20 -17 33 -31 30 -31 -4 0 7 -15 24 -32 17 -18 46 -52 65 -75 18 -23 38 -39
42 -35 5 4 6 3 2 -2 -8 -10 69 -116 85 -116 6 0 8 -3 4 -6 -5 -5 35 -68 54
-84 3 -3 17 -24 31 -48 13 -23 28 -39 33 -35 4 5 5 3 2 -4 -4 -6 0 -18 8 -26
8 -9 15 -20 15 -24 0 -5 8 -18 18 -29 9 -11 26 -36 36 -57 11 -20 23 -37 28
-37 4 0 7 -3 6 -7 -3 -13 25 -63 34 -63 5 0 6 -4 3 -10 -3 -5 -1 -10 5 -10 6
0 9 -4 5 -10 -3 -5 3 -18 15 -30 11 -11 19 -21 19 -22 -5 -9 16 -56 34 -75 11
-13 18 -23 14 -23 -3 0 11 -35 32 -78 52 -103 74 -155 73 -164 -1 -5 3 -8 8
-8 5 0 9 -3 8 -7 -4 -14 26 -83 35 -83 4 0 5 -4 2 -10 -3 -5 1 -22 8 -37 14
-27 113 -310 122 -349 22 -92 29 -114 36 -114 5 0 6 -7 3 -15 -4 -8 -1 -22 6
-30 7 -8 10 -15 7 -15 -3 0 -1 -16 5 -36 5 -20 12 -45 14 -55 2 -11 6 -29 10
-41 3 -13 7 -34 10 -48 2 -14 7 -31 9 -39 3 -7 8 -34 11 -59 3 -25 7 -49 10
-54 7 -10 10 -30 19 -103 3 -32 9 -63 12 -68 3 -5 7 -26 9 -46 2 -20 5 -49 7
-66 3 -16 8 -59 12 -95 3 -36 8 -83 11 -105 18 -149 24 -756 10 -922 -7 -75
-6 -82 13 -92 30 -17 33 -15 76 44 22 30 43 55 48 55 4 0 6 4 2 9 -3 6 0 13 8
18 7 4 20 19 29 33 8 14 24 35 34 47 30 34 56 71 55 77 -1 3 7 14 17 24 42 44
71 86 65 96 -3 6 -3 8 2 4 8 -7 28 14 36 37 2 6 15 22 29 36 14 14 32 36 40
49 8 12 25 35 37 50 12 15 20 30 16 34 -3 3 -2 6 4 6 5 0 32 30 59 67 27 36
55 72 62 80 7 7 10 13 6 13 -4 0 -1 6 7 13 9 6 33 37 55 67 21 30 42 57 46 58
5 2 8 8 8 13 0 5 13 24 29 42 39 42 80 104 75 111 -2 3 -1 4 3 1 8 -6 59 66
55 78 -1 5 1 6 6 3 5 -3 17 9 27 27 10 18 26 37 34 44 9 7 12 13 7 13 -4 0 2
9 15 20 13 10 20 19 15 20 -5 0 0 8 10 18 21 19 70 83 73 94 1 4 15 22 31 39
16 18 26 37 23 43 -3 6 -3 8 2 4 4 -4 13 -1 20 8 9 13 16 2 37 -64 25 -73 26
-85 16 -148 -5 -38 -12 -85 -14 -104 -2 -19 -6 -48 -9 -65 -2 -16 -7 -43 -9
-60 -3 -16 -7 -46 -10 -65 -2 -19 -9 -64 -15 -100 -6 -36 -13 -85 -16 -110 -3
-25 -7 -56 -10 -70 -5 -31 -13 -88 -20 -143 -3 -23 -7 -53 -10 -67 -3 -13 -7
-42 -10 -65 -3 -22 -8 -51 -10 -65 -3 -14 -7 -45 -10 -70 -3 -25 -10 -74 -16
-110 -6 -36 -12 -80 -15 -99 -2 -19 -6 -46 -9 -60 -2 -14 -6 -46 -10 -71 -3
-25 -8 -56 -10 -70 -2 -14 -7 -45 -10 -70 -6 -46 -8 -60 -20 -140 -9 -59 -15
-99 -20 -131 -3 -14 -7 -42 -10 -62 -3 -20 -7 -54 -10 -74 -3 -21 -8 -54 -10
-73 -2 -19 -6 -46 -9 -60 -4 -23 -13 -82 -21 -140 -11 -85 -26 -189 -31 -215
-4 -29 -8 -55 -18 -120 -14 -93 -19 -133 -22 -155 -1 -14 -3 -25 -4 -25 -2 0
-3 -10 -14 -100 -4 -32 -9 -62 -11 -65 -1 -3 -6 -32 -10 -65 -9 -70 -11 -85
-19 -142 -9 -54 -15 -99 -21 -143 -2 -19 -7 -46 -10 -60 -3 -14 -7 -45 -10
-70 -3 -25 -7 -56 -10 -70 -3 -14 -8 -45 -11 -70 -11 -94 -13 -105 -14 -105
-1 0 -3 -13 -4 -30 -1 -16 -6 -50 -10 -75 -5 -25 -10 -52 -11 -60 -3 -15 -13
-91 -19 -145 -2 -16 -7 -46 -10 -65 -3 -19 -8 -51 -11 -70 -2 -19 -7 -46 -9
-60 -3 -14 -10 -61 -16 -105 -6 -44 -13 -91 -16 -105 -2 -14 -6 -43 -9 -65 -3
-22 -8 -58 -11 -80 -4 -22 -8 -49 -9 -60 -2 -11 -6 -40 -10 -65 -3 -25 -8 -56
-10 -70 -11 -77 -17 -118 -22 -145 -2 -16 -6 -43 -8 -58 -2 -15 -7 -45 -10
-67 -3 -22 -8 -53 -10 -70 -2 -17 -6 -43 -9 -58 -3 -15 -8 -49 -12 -77 -3 -27
-7 -59 -9 -70 -19 -126 -24 -159 -30 -208 -2 -22 -7 -53 -11 -70 -4 -18 -8
-48 -10 -67 -1 -19 -3 -35 -4 -35 -1 0 -3 -11 -5 -25 -3 -34 -14 -110 -19
-136 -5 -26 -19 -122 -21 -149 -1 -11 -4 -29 -8 -40 -3 -11 -8 -31 -11 -45 -2
-14 -11 -45 -20 -69 -9 -24 -13 -47 -10 -52 3 -5 1 -9 -3 -9 -7 0 -30 -48 -38
-80 -1 -3 -12 -27 -25 -55 -13 -27 -25 -53 -26 -57 -1 -5 -3 -11 -4 -15 -1 -5
-2 -11 -1 -15 0 -5 -3 -8 -8 -8 -5 0 -12 -10 -16 -22 -4 -13 -8 -25 -10 -28
-12 -27 -29 -77 -27 -82 1 -5 -2 -8 -7 -8 -5 0 -13 -10 -17 -22 -6 -23 -14
-41 -69 -163 -15 -33 -28 -69 -31 -79 -2 -11 -9 -23 -15 -26 -6 -4 -10 -10 -9
-14 3 -13 -42 -96 -51 -96 -6 0 -8 -4 -5 -9 3 -4 -14 -14 -37 -21 -31 -10
-126 -14 -362 -15 -176 -1 -324 1 -330 4 -17 10 -212 63 -232 64 -7 0 -13 4
-13 8 0 4 -15 11 -32 15 -18 4 -36 9 -40 10 -5 1 -9 2 -10 4 -2 1 -10 3 -18 5
-30 6 -70 25 -71 32 0 5 -2 15 -4 23 -11 50 -16 73 -20 98 -11 55 -27 128 -35
157 -11 38 -24 118 -22 128 1 4 -3 7 -9 7 -5 0 -7 5 -4 10 4 6 2 25 -4 43 -6
17 -13 46 -15 62 -3 17 -16 82 -30 145 -29 129 -35 154 -40 190 -4 21 -22 104
-41 185 -13 51 -17 72 -20 95 -2 14 -4 25 -5 25 -1 0 -3 11 -5 25 -3 14 -6 32
-8 40 -2 8 -7 33 -12 55 -4 22 -10 44 -13 50 -3 5 -7 19 -9 32 -7 50 -10 70
-22 128 -7 33 -16 67 -19 75 -3 8 -5 18 -4 21 1 4 -3 22 -9 40 -5 19 -12 48
-14 64 -5 32 -13 70 -15 70 -1 0 -3 11 -5 25 -2 14 -8 45 -15 70 -13 56 -22
99 -23 123 -1 9 -5 17 -10 17 -4 0 -6 3 -3 8 2 4 -2 34 -10 67 -7 33 -16 75
-19 94 -3 18 -7 36 -9 40 -3 3 -7 25 -10 47 -4 23 -11 55 -16 72 -5 18 -7 32
-5 32 2 0 -2 15 -10 34 -8 18 -12 36 -8 39 3 4 2 14 -2 24 -5 10 -7 22 -6 26
3 15 -42 86 -51 81 -4 -3 -8 0 -8 6 0 23 -69 39 -195 45 -72 3 -149 7 -172 9
-23 2 -40 -1 -37 -6 3 -4 1 -8 -4 -8 -8 0 -33 -77 -34 -100 0 -3 -4 -10 -10
-17 -5 -7 -7 -17 -3 -23 3 -5 1 -10 -5 -10 -7 0 -10 -7 -6 -15 3 -8 2 -15 -3
-15 -8 0 -25 -54 -24 -77 0 -7 -3 -13 -7 -13 -7 0 -22 -56 -17 -64 1 -1 -4
-10 -11 -19 -8 -9 -11 -21 -7 -27 3 -5 1 -10 -5 -10 -7 0 -10 -7 -6 -15 3 -8
2 -15 -2 -15 -4 0 -14 -21 -22 -47 -7 -27 -14 -51 -15 -55 -2 -5 -3 -9 -4 -10
-11 -20 -68 -204 -65 -210 3 -4 1 -8 -4 -8 -8 0 -25 -55 -19 -64 1 -1 -4 -10
-11 -19 -8 -9 -11 -21 -7 -27 3 -5 1 -10 -5 -10 -7 0 -10 -7 -6 -15 3 -8 2
-15 -2 -15 -4 0 -14 -21 -22 -47 -7 -27 -14 -50 -15 -53 -5 -15 -18 -48 -26
-68 -5 -13 -7 -28 -4 -33 4 -5 1 -9 -5 -9 -6 0 -10 -6 -8 -12 1 -7 -3 -23 -10
-35 -7 -13 -10 -23 -7 -23 3 0 -1 -13 -10 -30 -9 -16 -13 -30 -9 -30 4 0 2 -6
-4 -13 -6 -7 -13 -24 -16 -39 -2 -14 -9 -36 -16 -47 -6 -12 -8 -26 -5 -31 3
-6 2 -10 -3 -10 -9 0 -26 -53 -25 -77 0 -7 -4 -13 -10 -13 -6 0 -7 -3 -4 -7 4
-3 3 -11 -2 -17 -6 -7 -12 -23 -15 -38 -2 -14 -9 -36 -16 -47 -6 -12 -8 -26
-5 -31 3 -6 2 -10 -2 -10 -7 0 -28 -58 -37 -100 -1 -3 -4 -10 -8 -16 -4 -6 -9
-22 -12 -36 -2 -15 -9 -36 -16 -47 -6 -12 -8 -25 -5 -30 3 -5 0 -11 -6 -13 -6
-2 -11 -16 -11 -31 0 -15 -4 -27 -8 -27 -6 0 -26 -60 -34 -100 -1 -3 -5 -11
-9 -17 -5 -7 -5 -17 -2 -23 3 -5 1 -10 -5 -10 -7 0 -10 -7 -6 -15 3 -8 2 -15
-2 -15 -14 0 -34 -98 -26 -122 4 -13 8 -39 10 -58 1 -19 3 -35 4 -35 1 0 3
-16 5 -35 2 -19 5 -54 9 -77 5 -39 3 -43 -17 -44 -34 -2 -47 -2 -112 6 -77 9
-86 11 -110 20 -11 4 -33 11 -50 17 -44 15 -63 23 -130 54 -33 16 -66 28 -73
27 -7 0 -11 2 -8 5 7 6 -75 58 -86 54 -5 -1 -8 2 -8 6 0 5 -16 17 -35 28 -19
10 -35 22 -35 27 0 4 -6 5 -12 1 -7 -4 -10 -4 -6 1 4 4 -1 20 -11 34 -27 39
-35 60 -48 131 -11 57 -8 108 13 203 6 25 13 68 19 112 3 17 10 53 15 80 6 28
13 64 15 80 3 17 7 41 10 55 5 23 17 91 30 165 2 17 7 41 10 55 3 14 10 52 15
85 10 63 13 75 35 194 8 40 12 78 9 82 -3 5 -1 9 4 9 5 0 9 6 9 13 1 27 12 94
22 139 6 27 11 51 10 55 -1 5 0 10 1 13 2 7 7 28 14 70 6 34 11 63 21 118 10
52 18 107 19 125 0 9 4 17 9 17 4 0 6 4 3 8 -3 4 -1 26 4 48 9 41 22 115 25
149 1 11 5 27 9 36 4 8 8 33 10 55 1 22 5 45 8 50 3 5 9 31 12 58 4 27 9 52
11 56 2 3 6 25 10 50 4 25 8 47 10 50 2 3 6 21 9 40 3 19 8 46 11 60 3 14 8
39 11 55 3 17 14 72 24 124 11 51 17 97 14 102 -3 5 -1 9 4 9 5 0 8 10 8 23
-1 12 0 27 3 32 3 6 6 12 6 15 1 3 4 19 8 35 4 17 9 44 12 60 3 17 7 41 10 55
3 14 8 39 11 55 3 17 12 64 20 105 9 41 17 82 19 90 11 61 16 88 20 110 23
106 42 216 38 223 -2 4 0 7 4 7 5 0 9 10 10 23 1 12 4 33 7 47 3 14 8 36 11
50 3 14 7 36 10 50 3 14 8 41 11 60 7 50 9 62 19 90 10 31 64 84 90 88 11 2
23 8 26 14 3 5 8 9 10 7 2 -1 15 1 29 5 14 5 30 9 35 11 6 2 24 9 40 16 17 6
35 13 40 15 53 13 116 64 147 119 30 56 84 267 72 286 -3 5 0 9 5 9 6 0 10 3
9 8 -1 4 2 34 7 67 4 33 9 69 11 80 1 11 5 40 8 65 3 25 8 68 11 95 3 28 8 66
10 85 10 84 20 190 29 320 12 149 15 195 16 195 14 0 19 450 6 570 -13 132
-15 150 -22 180 -4 16 -8 37 -9 45 -5 36 -17 90 -36 165 -11 44 -21 86 -21 93
-1 6 -4 12 -8 12 -3 0 -6 9 -7 21 -2 24 -34 118 -61 179 -13 27 -35 82 -37 90
0 3 -9 21 -20 40 -11 19 -20 37 -20 40 -7 26 -27 60 -35 60 -5 0 -9 3 -8 8 4
10 -59 117 -77 132 -8 7 -15 17 -15 23 0 5 -11 20 -25 33 -14 13 -26 27 -28
31 -1 5 -6 7 -10 5 -5 -1 -6 2 -2 7 3 6 -3 16 -15 23 -11 7 -20 17 -20 22 0
19 -170 167 -183 159 -6 -3 -7 -1 -3 5 3 6 -3 13 -14 17 -11 3 -20 11 -20 16
0 5 -5 9 -11 9 -6 0 -23 8 -37 19 -47 33 -140 80 -146 74 -3 -4 -6 -1 -6 6 0
7 -4 9 -10 6 -5 -3 -10 -2 -10 4 0 8 -31 23 -50 24 -3 0 -11 7 -18 14 -8 7
-18 11 -23 8 -5 -4 -9 -2 -9 3 0 9 -78 39 -123 48 -10 2 -26 5 -35 8 -9 3 -37
7 -62 10 -25 3 -56 8 -70 11 -73 15 -313 22 -415 12 -58 -5 -77 -8 -155 -22
-56 -9 -100 -26 -100 -37 0 -6 -7 -8 -15 -4 -8 3 -21 -2 -29 -10 -9 -8 -18
-14 -21 -14 -13 3 -63 -25 -59 -32 3 -5 2 -7 -3 -6 -18 5 -53 -14 -47 -25 4
-7 3 -9 -1 -4 -11 9 -54 -18 -110 -71 -14 -13 -25 -20 -25 -17 0 5 -30 -21
-116 -101 -18 -18 -30 -35 -26 -39 4 -4 2 -5 -4 -3 -13 3 -54 -39 -54 -55 0
-6 -3 -7 -6 -4 -9 8 -50 -45 -46 -58 2 -5 1 -7 -3 -3 -7 7 -65 -53 -65 -67 0
-4 -8 -15 -17 -24 -31 -28 -59 -65 -43 -56 8 5 -2 -8 -22 -29 -21 -21 -35 -43
-32 -47 3 -5 1 -9 -4 -9 -5 0 -17 -16 -28 -35 -10 -19 -21 -35 -24 -35 -3 0
-14 -17 -25 -37 -11 -21 -26 -45 -33 -53 -7 -8 -12 -19 -11 -24 0 -5 -4 -12
-9 -15 -11 -7 -53 -81 -102 -176 -17 -33 -37 -69 -45 -79 -8 -10 -12 -23 -9
-27 3 -5 1 -9 -4 -9 -6 0 -15 -13 -21 -30 -5 -16 -8 -30 -5 -30 2 0 -5 -9 -17
-21 -11 -11 -18 -27 -15 -35 3 -8 2 -14 -2 -14 -8 0 -38 -62 -34 -72 1 -5 -3
-8 -9 -8 -6 0 -9 -7 -5 -15 3 -8 2 -15 -3 -15 -5 0 -14 -15 -21 -32 -7 -18
-23 -57 -36 -86 -13 -29 -24 -58 -24 -66 0 -7 -3 -16 -7 -20 -5 -4 -8 -11 -9
-14 -1 -9 -13 -39 -31 -81 -8 -18 -16 -39 -18 -45 -1 -6 -4 -18 -7 -26 -28
-76 -49 -137 -49 -145 -1 -5 -5 -18 -11 -28 -8 -16 -11 -27 -21 -72 -2 -5 -5
-14 -8 -20 -4 -5 -10 -23 -14 -40 -5 -16 -9 -34 -11 -40 -2 -5 -10 -35 -19
-65 -20 -70 -67 -250 -70 -270 -1 -8 -5 -22 -8 -30 -3 -8 -8 -28 -11 -45 -2
-16 -11 -61 -19 -100 -9 -38 -18 -83 -20 -100 -3 -16 -12 -64 -21 -105 -15
-72 -24 -121 -32 -165 -4 -27 -12 -66 -30 -158 -8 -43 -17 -90 -19 -105 -2
-15 -4 -27 -5 -27 -1 0 -3 -9 -5 -20 -2 -11 -7 -36 -11 -55 -4 -19 -8 -43 -9
-52 -2 -10 -3 -19 -5 -20 -3 -5 -19 -91 -25 -143 -2 -16 -6 -41 -9 -55 -10
-48 -16 -75 -21 -110 -7 -39 -13 -75 -19 -105 -6 -32 -19 -109 -21 -125 -8
-66 -18 -100 -31 -100 -9 0 -13 4 -10 8 3 4 1 26 -5 48 -5 21 -12 55 -15 74
-3 19 -8 38 -10 41 -2 4 -6 24 -10 45 -3 22 -9 53 -14 69 -5 17 -13 53 -19 80
-5 28 -19 89 -30 136 -12 48 -23 97 -25 110 -3 13 -5 25 -5 27 -1 1 -1 4 -2 7
-1 6 -29 123 -36 150 -2 11 -6 29 -9 40 -19 93 -28 131 -33 135 -4 3 -6 12 -6
20 1 8 -5 32 -12 53 -6 20 -10 37 -7 37 3 0 2 6 -3 13 -4 6 -8 17 -8 22 -4 37
-19 96 -26 101 -4 2 -6 11 -3 18 3 8 0 17 -5 21 -6 3 -9 11 -6 16 4 5 3 15 -2
22 -4 6 -8 17 -8 22 -1 29 -30 135 -38 135 -4 0 -6 4 -3 8 2 4 -13 75 -35 157
-22 83 -42 164 -45 180 -3 17 -10 35 -15 41 -5 6 -6 14 -3 17 3 3 2 12 -2 19
-5 7 -9 18 -11 23 -8 36 -16 67 -63 235 -41 145 -58 208 -76 273 -10 37 -22
67 -27 67 -4 0 -6 4 -3 9 4 5 1 22 -5 38 -6 15 -12 35 -14 43 -7 34 -44 157
-55 185 -6 17 -14 39 -16 51 -2 11 -15 56 -29 100 -15 43 -28 90 -31 104 -3
14 -9 27 -15 28 -5 2 -7 7 -4 12 3 4 -2 27 -11 51 -9 24 -17 51 -19 59 -2 8
-4 16 -4 18 -1 1 -2 5 -3 10 -1 4 -15 43 -30 87 -16 44 -30 90 -32 102 -2 13
-9 29 -16 38 -7 8 -10 15 -7 15 5 0 -32 119 -50 160 -3 8 -7 20 -8 25 0 6 -4
17 -7 25 -4 8 -14 38 -23 65 -9 28 -21 58 -26 67 -5 10 -9 26 -9 36 0 9 -6 26
-14 37 -7 11 -14 23 -14 28 -1 24 -15 67 -21 67 -4 0 -8 10 -8 22 -1 13 -9 39
-17 58 -16 39 -29 73 -30 80 -1 3 -4 10 -7 15 -4 6 -10 25 -14 43 -3 17 -10
32 -14 32 -3 0 -8 12 -9 27 -1 15 -7 30 -13 34 -6 3 -10 9 -9 13 3 10 -43 136
-49 136 -3 0 -7 12 -8 27 0 15 -6 29 -12 31 -6 2 -11 12 -11 22 0 9 -8 35 -17
56 -9 22 -18 44 -19 49 -1 6 -21 55 -43 109 -23 55 -41 102 -41 105 0 9 326
351 334 351 2 0 163 148 208 192 21 21 38 34 38 30 0 -4 6 0 13 9 7 8 36 34
65 57 30 23 50 42 45 42 -4 0 7 8 24 16 18 9 30 21 26 27 -3 5 -2 7 4 4 6 -4
32 14 58 39 26 25 44 40 39 33 -4 -7 7 -3 24 10 18 12 32 27 32 32 0 6 4 8 8
5 4 -3 24 10 44 29 20 18 39 31 41 29 2 -2 17 8 33 23 16 15 31 26 34 25 3 -1
14 6 25 15 11 10 23 18 27 18 4 0 16 8 27 17 11 9 43 30 71 46 27 16 47 32 43
35 -3 4 1 7 9 7 17 0 100 44 96 51 -2 2 -1 3 1 2 7 -4 135 69 143 81 4 6 8 8
8 3 0 -8 141 63 151 76 3 5 10 9 15 8 20 -1 54 12 54 20 0 5 6 9 13 9 13 0
208 81 217 90 3 3 10 5 15 5 24 1 95 29 95 37 0 5 4 7 8 4 7 -4 67 12 112 31
8 3 19 5 24 4 4 -1 14 4 22 10 8 6 14 9 14 6 0 -4 18 0 39 8 22 7 42 11 45 8
3 -4 6 -1 6 6 0 7 4 10 9 7 5 -4 22 -1 38 5 15 6 39 13 53 15 14 2 32 5 40 7
8 2 38 8 65 12 56 10 64 12 68 14 1 2 14 4 28 6 15 2 44 6 65 10 40 6 61 9
194 20 41 4 76 8 78 10 6 5 762 -3 822 -9z"/>
<path d="M23929 13502 c0 -75 -2 -312 -2 -527 l-2 -389 55 -3 c70 -4 123 -3
128 2 2 2 5 15 6 29 0 14 4 26 8 26 3 0 5 8 3 18 -1 9 1 22 5 27 4 6 8 17 8
25 1 18 10 75 12 75 2 0 7 21 15 60 3 17 12 58 20 93 8 34 17 74 20 90 3 15 7
38 11 52 3 14 7 34 9 45 2 11 10 49 19 85 8 36 18 79 21 95 3 17 16 79 29 140
14 60 22 113 20 117 -3 5 -1 8 3 8 5 0 10 11 11 24 1 18 -3 25 -16 24 -9 0
-66 3 -127 6 -60 4 -143 8 -182 11 l-73 4 -1 -137z"/>
<path d="M4924 21937 c-12 -6 -37 -21 -55 -31 -19 -10 -37 -23 -40 -28 -3 -5
-9 -9 -13 -9 -20 3 -26 0 -21 -9 4 -6 3 -9 -2 -8 -12 4 -83 -35 -83 -45 0 -4
-4 -6 -10 -2 -5 3 -18 -3 -29 -14 -11 -11 -22 -17 -25 -13 -3 3 -6 0 -6 -7 0
-7 -4 -10 -9 -6 -5 3 -16 -1 -24 -9 -8 -8 -17 -12 -21 -9 -3 3 -8 -2 -12 -11
-3 -9 -10 -14 -14 -11 -4 3 -19 -4 -33 -15 -14 -11 -29 -20 -33 -20 -4 0 -19
-10 -32 -22 -14 -13 -22 -17 -17 -9 8 14 -25 -5 -81 -46 -17 -13 -34 -20 -37
-16 -4 3 -7 1 -7 -5 0 -7 -7 -12 -15 -12 -9 0 -18 -7 -21 -15 -4 -8 -10 -13
-14 -10 -5 3 -14 -1 -22 -8 -13 -14 -21 -17 -39 -17 -5 0 -7 -5 -3 -12 4 -6 3
-8 -3 -5 -5 3 -33 -9 -61 -27 -28 -19 -53 -32 -56 -29 -3 3 -8 -2 -12 -11 -3
-9 -10 -13 -15 -11 -4 3 -17 -3 -29 -15 -11 -11 -22 -20 -25 -19 -12 1 -95
-45 -95 -53 0 -5 -4 -7 -8 -4 -5 3 -18 -2 -28 -12 -11 -9 -26 -18 -34 -20 -7
-2 -20 -11 -28 -20 -9 -11 -11 -12 -6 -2 6 11 2 10 -13 -2 -11 -10 -24 -18
-29 -18 -6 0 -20 -9 -32 -20 -12 -12 -22 -18 -22 -15 0 4 -13 -3 -29 -14 -16
-12 -34 -21 -40 -21 -6 0 -11 -4 -11 -9 0 -5 -11 -12 -25 -15 -14 -4 -25 -11
-25 -17 0 -6 -5 -7 -10 -4 -6 3 -13 -1 -16 -9 -3 -9 -10 -14 -14 -11 -4 3 -38
-15 -74 -40 -37 -24 -64 -39 -60 -33 4 6 -5 3 -19 -8 -15 -10 -27 -23 -27 -27
0 -5 -4 -6 -10 -2 -5 3 -18 -3 -30 -15 -11 -11 -20 -17 -20 -14 0 4 -12 -1
-26 -11 -14 -9 -51 -31 -83 -48 -31 -16 -58 -33 -61 -37 -3 -4 -15 -10 -27
-14 -13 -4 -23 -12 -23 -17 0 -6 -4 -8 -8 -5 -5 3 -19 -4 -30 -15 -12 -10 -24
-20 -27 -20 -25 -4 -44 -13 -39 -20 3 -5 -2 -6 -10 -3 -9 3 -16 2 -16 -2 0 -5
-21 -20 -47 -33 -27 -14 -63 -35 -81 -48 -17 -13 -32 -21 -32 -17 0 4 -10 -2
-23 -14 -13 -12 -26 -20 -29 -17 -3 3 -11 -1 -18 -10 -7 -8 -16 -15 -21 -15
-12 0 -183 -103 -187 -112 -2 -5 -7 -6 -12 -3 -5 3 -15 -1 -22 -9 -8 -7 -24
-17 -36 -20 -12 -4 -22 -12 -22 -17 0 -6 -4 -8 -8 -5 -5 3 -20 -5 -33 -17 -13
-12 -25 -20 -26 -17 -1 3 -11 -2 -21 -10 -10 -8 -25 -16 -33 -18 -8 -2 -16 -8
-17 -13 -2 -5 -8 -7 -13 -3 -5 3 -9 1 -9 -4 0 -6 -11 -13 -25 -16 -14 -4 -25
-11 -25 -17 0 -6 -4 -7 -10 -4 -5 3 -10 1 -10 -4 0 -6 -5 -11 -11 -11 -7 0
-18 -8 -26 -17 -8 -10 -11 -12 -8 -5 8 15 -75 -36 -87 -53 -4 -5 -8 -7 -8 -3
0 4 -15 -1 -32 -12 -18 -11 -43 -24 -56 -30 -12 -5 -22 -14 -22 -19 0 -6 -7
-8 -15 -5 -8 4 -15 2 -15 -3 0 -4 -21 -20 -47 -33 -27 -14 -61 -34 -78 -45
-16 -11 -34 -20 -38 -20 -4 0 -11 -6 -16 -13 -5 -8 -12 -14 -17 -14 -18 -1
-54 -21 -54 -30 0 -5 -4 -7 -9 -3 -5 3 -16 -2 -24 -10 -9 -8 -20 -15 -24 -15
-5 0 -18 -8 -29 -17 -11 -10 -25 -19 -32 -21 -7 -1 -31 -13 -52 -27 -22 -14
-43 -25 -46 -25 -4 0 -13 -8 -21 -17 -8 -10 -11 -12 -8 -5 6 11 3 11 -14 0
-12 -7 -21 -16 -21 -21 0 -4 -5 -5 -10 -2 -6 3 -13 -1 -16 -9 -3 -9 -10 -14
-14 -11 -5 3 -21 -6 -37 -19 -15 -13 -30 -24 -33 -24 -20 -3 -69 -30 -63 -35
3 -4 -1 -7 -10 -7 -8 0 -22 -7 -31 -15 -8 -9 -17 -15 -18 -13 -2 1 -11 -3 -22
-9 -16 -9 -13 -13 30 -32 27 -12 57 -27 66 -32 10 -5 25 -9 33 -9 9 0 13 -5
10 -10 -4 -6 7 -24 24 -40 16 -17 28 -30 25 -30 -2 0 4 -9 13 -19 34 -37 43
-50 43 -61 0 -6 5 -8 10 -5 6 3 10 -1 10 -9 0 -9 5 -16 11 -16 5 0 7 -4 4 -10
-3 -5 1 -10 10 -10 9 0 14 -4 10 -9 -3 -6 3 -14 12 -20 10 -6 14 -11 10 -11
-5 0 -2 -6 5 -14 7 -7 20 -24 28 -37 8 -13 28 -37 44 -54 16 -16 28 -32 27
-35 -2 -5 51 -77 82 -111 9 -10 17 -23 17 -29 0 -5 4 -10 8 -10 4 0 20 -19 35
-42 15 -24 38 -55 52 -70 14 -15 25 -31 25 -37 0 -5 11 -18 25 -29 13 -11 21
-22 18 -26 -3 -3 -1 -6 5 -6 7 0 12 -7 12 -15 0 -8 4 -15 10 -15 5 0 16 -12
24 -27 8 -16 30 -45 50 -66 19 -21 34 -41 34 -43 -1 -10 66 -94 74 -94 5 0 7
-4 4 -8 -3 -5 8 -23 23 -40 16 -17 27 -33 24 -36 -3 -2 4 -11 16 -18 12 -7 21
-18 21 -25 0 -7 6 -16 14 -20 7 -4 15 -13 17 -20 5 -14 115 -157 145 -189 12
-13 19 -25 17 -28 -3 -3 2 -8 11 -12 9 -3 13 -10 10 -15 -3 -5 2 -12 10 -15 9
-3 16 -12 16 -19 0 -7 3 -15 8 -17 4 -1 25 -27 46 -55 21 -29 42 -53 47 -53 6
0 7 -5 4 -10 -3 -6 1 -13 9 -16 9 -3 13 -10 10 -15 -3 -5 0 -9 5 -9 6 0 11 -7
11 -15 0 -8 7 -15 16 -15 8 0 12 -4 9 -10 -3 -5 -1 -10 4 -10 6 0 11 -7 11
-16 0 -8 5 -12 10 -9 6 3 10 0 10 -8 0 -14 176 -249 191 -255 5 -2 9 -9 9 -16
0 -6 14 -26 30 -44 17 -18 30 -37 30 -43 0 -5 4 -9 8 -9 4 0 15 -12 24 -27 9
-16 31 -43 50 -62 18 -19 27 -31 20 -27 -14 8 45 -72 73 -100 8 -9 15 -19 15
-24 0 -4 16 -24 35 -44 19 -20 35 -40 35 -44 1 -4 10 -17 20 -30 11 -12 20
-27 20 -32 0 -13 49 -44 57 -36 7 7 8 11 18 86 6 47 11 78 20 120 3 14 8 45
11 70 3 25 8 54 11 65 3 11 6 34 8 51 1 17 5 39 9 50 5 18 15 72 22 119 1 11
3 20 4 20 2 0 3 11 4 25 1 14 5 34 9 45 7 20 19 95 20 128 1 9 4 17 7 17 4 0
7 6 7 13 1 21 18 112 39 207 3 14 7 34 9 45 3 11 14 58 25 105 12 47 22 96 22
110 1 14 5 27 9 30 6 4 19 70 22 108 0 6 5 12 10 12 5 0 7 6 4 14 -3 8 -3 17
1 20 3 4 8 17 10 29 5 29 7 39 16 59 4 9 5 22 1 28 -3 5 -1 10 5 10 7 0 9 8 5
20 -3 11 -2 20 3 20 5 0 9 6 10 13 4 32 12 65 25 102 8 22 12 46 10 53 -3 6 0
12 7 12 6 0 10 6 9 13 -1 6 6 38 15 71 10 32 19 64 20 70 1 6 5 17 9 24 5 6 5
17 2 22 -3 6 -2 10 3 10 6 0 13 17 18 38 9 46 4 30 44 152 19 58 35 110 35
115 0 6 2 12 5 15 10 10 30 61 21 56 -4 -3 0 11 10 32 10 20 19 46 21 57 2 11
7 23 12 26 5 4 9 18 9 33 0 14 4 26 9 26 6 0 8 6 5 14 -3 8 -2 16 3 18 4 2 10
12 12 23 1 11 6 22 10 25 4 3 9 15 11 25 2 11 9 31 14 45 6 14 9 28 6 33 -2 4
0 7 5 7 9 0 37 78 34 93 -1 4 3 7 9 7 6 0 9 6 6 14 -3 8 -1 16 4 18 5 2 11 13
12 26 0 12 4 22 7 22 7 0 35 69 35 88 0 7 7 17 15 22 8 5 12 10 7 10 -4 0 -1
13 7 29 9 16 12 31 9 35 -4 3 -1 6 6 6 8 0 11 6 7 16 -3 8 -2 12 4 9 6 -3 11
1 11 9 2 24 4 29 17 52 6 12 8 24 5 28 -3 3 -1 6 5 6 10 0 28 38 24 53 -1 4 3
7 9 7 6 0 8 7 5 16 -4 10 -2 13 6 8 8 -5 9 -2 5 10 -4 10 -1 19 9 23 8 3 13
12 10 19 -3 8 -2 14 3 14 5 0 12 10 16 23 4 12 8 24 9 27 1 3 7 15 14 28 7 12
9 22 5 22 -4 0 -3 4 4 8 6 4 13 14 15 22 2 8 10 21 18 28 13 12 13 12 0 6 -8
-5 -5 4 8 20 12 16 19 32 16 37 -3 5 0 9 6 9 6 0 8 5 5 10 -3 6 -2 10 4 10 5
0 12 9 16 20 3 10 24 52 46 92 22 40 41 77 42 83 1 5 8 16 15 23 6 7 12 20 12
28 0 8 4 14 9 14 5 0 13 10 17 23 3 12 13 30 22 40 8 9 11 17 6 17 -5 0 -1 7
10 15 10 7 15 18 11 24 -3 6 -2 11 4 11 12 0 45 60 34 60 -5 0 0 5 10 11 9 6
15 14 12 19 -3 4 2 10 10 14 8 3 15 10 15 16 0 6 19 40 43 77 23 36 42 69 41
72 0 3 10 17 23 31 13 14 23 30 23 37 0 6 6 18 13 25 22 22 78 108 71 108 -4
0 5 11 20 25 15 14 24 30 20 37 -4 6 -3 8 3 5 6 -4 19 9 29 28 10 19 23 35 28
35 5 0 7 3 3 6 -3 3 3 16 14 28 32 33 90 116 81 116 -4 0 -17 -6 -28 -13z"/>
<path d="M9147 21293 c-1 0 -49 -4 -107 -8 -134 -9 -175 -12 -175 -15 0 -1
-16 -4 -35 -5 -76 -7 -125 -17 -137 -27 -7 -5 -16 -7 -21 -4 -5 3 -26 0 -48
-6 -21 -7 -41 -12 -44 -13 -61 -13 -118 -30 -127 -38 -7 -5 -13 -7 -13 -3 0 8
-144 -46 -148 -56 -2 -4 -8 -6 -12 -3 -5 3 -17 1 -27 -4 -30 -17 -138 -65
-145 -66 -4 0 -17 -8 -28 -17 -11 -10 -25 -18 -30 -18 -15 0 -53 -23 -72 -43
-9 -10 -19 -17 -23 -16 -4 1 -25 -10 -47 -25 -22 -14 -43 -26 -47 -26 -4 0
-24 -15 -44 -34 -20 -18 -38 -32 -40 -30 -2 2 -20 -11 -40 -30 -20 -19 -37
-32 -37 -29 0 2 -6 -2 -14 -9 -8 -7 -11 -17 -8 -22 3 -5 0 -6 -6 -3 -5 4 -22
-7 -36 -24 -14 -17 -26 -28 -26 -24 0 8 -123 -117 -197 -201 -35 -39 -63 -75
-63 -81 0 -6 -7 -14 -16 -17 -9 -4 -14 -9 -11 -13 4 -3 -5 -15 -19 -25 -14
-11 -23 -22 -21 -25 3 -2 -8 -18 -23 -34 -15 -17 -34 -43 -41 -57 -8 -15 -20
-33 -27 -40 -7 -8 -10 -17 -7 -22 3 -4 -2 -11 -11 -14 -8 -3 -13 -10 -10 -15
3 -5 -1 -11 -9 -15 -8 -3 -15 -12 -15 -21 0 -8 -5 -15 -11 -15 -5 0 -7 -4 -4
-10 3 -5 2 -10 -3 -10 -5 0 -12 -8 -16 -17 -3 -10 -15 -33 -26 -50 -11 -18
-16 -33 -12 -33 4 0 1 -4 -6 -9 -7 -4 -14 -15 -16 -24 -1 -9 -10 -25 -21 -37
-10 -11 -15 -20 -10 -20 4 0 2 -6 -4 -13 -6 -8 -8 -17 -4 -20 3 -4 1 -7 -6 -7
-7 0 -9 -4 -6 -10 3 -5 2 -10 -4 -10 -9 0 -21 -26 -20 -44 0 -5 -3 -12 -8 -15
-10 -7 -56 -116 -53 -127 1 -4 -3 -10 -10 -14 -6 -4 -12 -17 -13 -28 -1 -12
-6 -22 -11 -22 -5 0 -6 -3 -3 -7 4 -3 2 -12 -4 -20 -6 -7 -8 -13 -4 -13 4 0 2
-7 -5 -15 -7 -8 -9 -15 -4 -15 5 0 3 -4 -4 -9 -7 -4 -14 -19 -16 -32 -3 -23
-8 -38 -23 -76 -4 -10 -8 -22 -8 -28 -1 -5 -7 -23 -13 -38 -7 -15 -15 -40 -18
-55 -3 -15 -15 -56 -25 -92 -20 -71 -30 -115 -32 -142 -1 -10 -4 -18 -7 -18
-4 0 -7 -6 -7 -12 -1 -23 -18 -118 -28 -147 -3 -10 -7 -35 -9 -57 -3 -21 -7
-50 -11 -64 -5 -25 -13 -81 -20 -150 -2 -19 -4 -35 -5 -35 -2 0 -4 -21 -15
-140 -19 -219 -20 -532 -1 -745 5 -63 8 -85 22 -200 4 -30 8 -66 9 -80 2 -14
4 -25 5 -25 2 0 6 -21 14 -75 2 -19 8 -46 11 -60 3 -14 8 -32 10 -40 2 -8 4
-15 5 -15 1 0 4 -11 5 -25 4 -24 11 -59 15 -70 1 -3 2 -8 1 -12 -2 -11 6 -10
38 7 16 8 31 11 35 8 3 -4 6 -1 6 6 0 7 4 10 9 6 5 -3 12 -1 16 5 3 5 14 10
23 10 10 0 33 8 52 18 19 11 41 17 48 15 6 -3 12 0 12 6 0 6 3 10 8 10 4 -1
10 0 15 1 4 1 11 3 16 4 10 1 50 51 98 121 15 22 30 42 33 45 27 27 52 62 40
55 -8 -4 1 7 20 24 19 18 28 29 20 26 -8 -4 -6 2 6 12 23 19 71 82 76 98 2 6
6 9 10 8 5 -2 8 1 8 5 0 5 11 22 25 38 14 16 25 33 25 37 0 4 11 20 24 34 14
15 23 30 20 35 -3 4 2 8 10 8 9 0 16 7 16 15 0 8 4 15 10 15 5 0 9 3 8 8 -1 4
12 22 29 41 18 19 30 38 27 43 -3 4 -1 8 4 8 12 0 82 95 82 111 0 5 4 8 8 5 5
-3 16 8 26 25 10 16 28 41 42 56 13 14 22 28 20 31 -3 2 7 15 22 29 15 13 20
22 12 18 -8 -4 -3 3 11 16 15 13 37 40 50 59 13 19 31 43 39 53 8 10 15 21 15
24 0 4 17 25 38 47 20 22 37 43 37 47 0 5 13 23 50 67 6 6 8 12 5 12 -3 0 4
11 17 25 39 41 49 55 41 55 -4 0 -1 5 8 10 9 5 29 28 45 52 16 24 36 49 44 56
13 12 13 13 0 6 -8 -4 -4 4 10 18 40 41 96 113 80 103 -8 -4 -4 3 10 17 34 34
61 68 54 68 -4 0 4 9 17 21 13 11 17 17 9 13 -8 -4 -4 4 10 18 34 35 51 56 50
64 -1 3 9 14 21 25 12 10 19 19 16 19 -3 0 4 11 16 24 34 37 48 56 42 56 -3 0
3 9 13 19 9 11 22 26 27 33 6 7 28 35 50 63 22 27 33 45 25 41 -8 -5 -1 3 15
18 17 14 26 25 21 26 -4 0 2 9 15 20 13 10 21 19 18 20 -4 0 8 17 27 37 19 20
32 39 29 41 -2 2 7 14 21 27 13 12 24 28 24 34 0 6 7 14 15 17 8 4 15 12 15
20 0 8 5 14 10 14 6 0 17 15 25 33 8 17 15 28 15 22 1 -9 18 15 23 32 3 12 79
84 84 79 2 -2 42 14 89 35 46 21 88 39 93 39 11 0 10 -7 -19 -100 -13 -41 -25
-79 -26 -85 -2 -5 -5 -19 -8 -30 -3 -11 -16 -55 -30 -97 -13 -42 -21 -79 -18
-82 3 -3 0 -6 -7 -6 -6 0 -11 -6 -10 -12 1 -7 -1 -20 -4 -28 -4 -8 -8 -24 -10
-35 -2 -11 -7 -27 -10 -35 -14 -36 -32 -96 -33 -110 0 -9 -6 -25 -12 -37 -6
-11 -14 -35 -17 -53 -3 -18 -10 -41 -16 -52 -5 -10 -7 -22 -4 -27 3 -5 1 -11
-5 -13 -5 -1 -11 -15 -12 -30 -1 -16 -6 -28 -11 -28 -4 0 -5 -5 -2 -10 4 -6 3
-16 -3 -23 -8 -11 -37 -106 -35 -117 1 -3 -3 -13 -9 -23 -8 -16 -11 -27 -21
-72 -2 -5 -6 -16 -10 -22 -5 -7 -6 -13 -3 -13 3 0 -2 -16 -10 -35 -8 -19 -11
-35 -8 -35 4 0 1 -7 -6 -15 -6 -8 -9 -19 -5 -25 3 -5 2 -10 -3 -10 -8 0 -19
-33 -26 -75 -1 -5 -10 -37 -21 -70 -10 -33 -19 -62 -20 -65 0 -3 -8 -27 -17
-55 -9 -27 -20 -63 -24 -80 -9 -37 -8 -34 -22 -68 -7 -16 -10 -33 -6 -38 3 -5
0 -9 -5 -9 -6 0 -10 -3 -10 -7 1 -5 0 -10 -1 -13 -1 -5 -3 -11 -14 -55 -2 -11
-11 -39 -20 -62 -8 -24 -13 -43 -9 -43 3 0 1 -6 -5 -12 -6 -7 -11 -16 -11 -20
-1 -5 -1 -9 -2 -10 0 -2 -2 -10 -5 -18 -2 -8 -11 -40 -19 -70 -9 -30 -18 -62
-20 -70 -2 -8 -4 -17 -5 -20 -1 -3 -2 -8 -1 -12 0 -5 -3 -8 -8 -8 -5 0 -8 -8
-7 -17 2 -9 -3 -28 -10 -42 -7 -14 -15 -37 -17 -51 -3 -14 -10 -37 -16 -52 -6
-16 -8 -28 -5 -28 4 0 1 -7 -6 -15 -7 -8 -9 -15 -6 -15 4 0 2 -9 -4 -21 -11
-20 -19 -46 -25 -84 -2 -11 -4 -22 -5 -25 -1 -3 -2 -8 -1 -12 0 -5 -3 -8 -8
-8 -7 0 -15 -26 -25 -80 -1 -3 -5 -11 -9 -17 -5 -7 -5 -17 -2 -23 3 -5 2 -10
-3 -10 -5 0 -9 -6 -10 -12 -3 -35 -8 -54 -14 -59 -5 -3 -9 -17 -10 -32 -1 -15
-6 -27 -11 -27 -5 0 -7 -6 -4 -14 3 -7 0 -19 -6 -25 -6 -6 -7 -11 -3 -11 5 0
3 -7 -4 -15 -7 -9 -10 -18 -7 -22 4 -3 1 -15 -5 -27 -12 -21 -17 -37 -20 -68
-1 -10 -6 -18 -11 -18 -5 0 -7 -6 -4 -12 2 -7 -2 -25 -9 -40 -8 -15 -15 -39
-16 -53 -1 -14 -6 -25 -10 -25 -4 0 -7 -3 -6 -7 1 -5 -5 -30 -14 -58 -17 -49
-29 -98 -30 -122 -1 -7 -6 -13 -11 -13 -5 0 -7 -6 -4 -14 3 -7 2 -17 -3 -22
-5 -5 -11 -20 -13 -34 -8 -42 -12 -55 -17 -60 -7 -6 -31 -90 -33 -112 -1 -10
-4 -18 -7 -18 -4 0 -7 -6 -8 -12 -1 -16 -5 -30 -22 -88 -8 -25 -14 -47 -14
-50 -1 -3 -5 -11 -9 -17 -5 -7 -6 -17 -2 -22 3 -5 1 -12 -4 -15 -5 -3 -9 -31
-9 -61 l1 -56 63 65 c35 35 64 63 64 61 0 -2 20 16 44 41 25 24 49 44 55 44 5
0 13 9 16 20 3 11 13 20 21 20 8 0 12 5 9 10 -3 6 -1 10 5 10 6 0 26 15 44 33
18 17 56 54 84 80 29 27 52 53 52 58 0 5 4 8 8 6 5 -1 25 14 45 33 21 19 41
34 44 33 4 -2 8 -69 9 -150 1 -82 5 -290 9 -463 8 -331 9 -701 3 -735 -1 -11
-7 -23 -11 -26 -4 -3 -9 -18 -11 -33 -2 -16 -9 -32 -17 -37 -8 -5 -10 -9 -5
-9 5 0 -1 -9 -14 -20 -13 -11 -20 -20 -16 -20 4 0 -10 -15 -31 -32 -21 -18
-43 -37 -49 -43 -6 -5 -22 -17 -34 -25 -13 -8 -32 -23 -42 -32 -10 -10 -18
-15 -18 -10 0 4 -7 -1 -14 -11 -8 -10 -17 -18 -20 -18 -12 1 -76 -41 -76 -51
0 -5 -4 -7 -9 -3 -5 3 -26 -6 -46 -19 -20 -14 -49 -31 -65 -38 -17 -7 -30 -16
-30 -20 0 -5 -6 -8 -14 -8 -17 0 -128 -109 -121 -120 3 -4 -2 -13 -10 -20 -8
-7 -12 -16 -9 -21 3 -5 1 -9 -3 -9 -5 0 -14 -9 -21 -21 -11 -17 -11 -20 0 -13
13 8 -2 -15 -29 -44 -12 -12 -15 -21 -12 -38 0 -4 -3 -10 -9 -13 -16 -11 -62
-97 -55 -104 3 -4 1 -7 -5 -7 -6 0 -19 -17 -28 -37 -10 -21 -26 -50 -36 -65
-11 -16 -16 -28 -11 -28 4 0 3 -4 -2 -8 -6 -4 -17 -20 -25 -37 -8 -16 -17 -32
-20 -35 -5 -4 -30 -58 -33 -70 -1 -3 -7 -12 -14 -20 -7 -8 -13 -19 -12 -24 0
-5 -4 -12 -11 -16 -6 -4 -12 -14 -14 -22 -1 -8 -9 -27 -19 -41 -9 -15 -17 -32
-17 -40 0 -7 -5 -18 -12 -25 -7 -7 -9 -12 -5 -12 4 0 2 -10 -5 -22 -6 -13 -13
-32 -15 -42 -2 -11 -8 -25 -14 -33 -6 -7 -8 -13 -4 -13 4 0 2 -7 -5 -15 -6 -8
-9 -19 -5 -25 3 -5 1 -10 -4 -10 -6 0 -11 -11 -11 -24 0 -14 -5 -28 -11 -31
-6 -4 -8 -13 -5 -20 3 -8 1 -15 -4 -17 -6 -2 -11 -15 -12 -30 -1 -16 -5 -28
-8 -28 -5 0 -28 -72 -29 -93 0 -4 -8 -21 -16 -37 -9 -17 -13 -30 -9 -30 4 0 1
-6 -5 -13 -6 -8 -12 -22 -14 -33 -2 -10 -7 -27 -11 -36 -4 -9 -8 -22 -10 -30
-1 -7 -4 -17 -7 -23 -3 -5 -14 -37 -25 -70 -10 -33 -21 -62 -24 -65 -3 -3 -5
-12 -5 -20 0 -8 -3 -18 -7 -21 -4 -3 -9 -17 -10 -32 -1 -15 -6 -27 -11 -27 -4
0 -6 -4 -2 -9 3 -5 0 -13 -6 -16 -5 -4 -8 -13 -5 -20 3 -8 1 -15 -4 -17 -5 -2
-10 -14 -12 -28 -2 -14 -6 -29 -9 -35 -10 -17 -33 -90 -31 -97 1 -5 -2 -8 -8
-8 -6 0 -9 -3 -8 -7 2 -7 -15 -66 -29 -103 -4 -8 -7 -17 -8 -20 0 -3 -12 -36
-25 -75 -14 -38 -25 -74 -25 -80 0 -5 -4 -16 -8 -22 -5 -7 -5 -13 0 -13 4 0 2
-4 -5 -9 -8 -5 -15 -20 -15 -35 -1 -14 -6 -26 -10 -26 -4 0 -7 -6 -5 -12 1 -7
-3 -23 -10 -35 -7 -13 -10 -23 -7 -23 3 0 1 -9 -5 -20 -6 -11 -13 -37 -16 -58
-2 -20 -6 -53 -9 -72 -3 -19 -7 -64 -10 -100 -2 -36 -7 -86 -10 -113 -3 -26
-8 -69 -10 -95 -2 -26 -7 -74 -10 -107 -3 -33 -8 -82 -11 -110 -3 -27 -7 -70
-10 -95 -2 -25 -6 -65 -8 -90 -2 -25 -7 -72 -11 -105 -4 -33 -9 -80 -11 -105
-4 -49 -10 -111 -18 -180 -10 -102 -19 -187 -21 -220 -1 -19 -6 -64 -10 -100
-8 -72 -11 -105 -19 -200 -8 -89 -14 -128 -26 -149 -5 -10 -6 -22 -2 -26 4 -5
1 -5 -5 -1 -8 4 -13 1 -13 -8 0 -9 -5 -16 -11 -16 -5 0 -7 -5 -3 -12 4 -6 3
-8 -4 -4 -6 3 -14 0 -19 -7 -9 -16 -90 -45 -115 -41 -10 1 -18 -1 -18 -4 0 -4
-10 -8 -22 -9 -36 -2 -98 -12 -116 -17 -9 -3 -37 -8 -62 -12 -51 -7 -75 -12
-75 -14 0 -1 -11 -3 -25 -5 -23 -2 -57 -8 -122 -20 -16 -3 -40 -7 -55 -10 -16
-3 -44 -8 -63 -11 -19 -3 -42 -7 -50 -9 -8 -3 -33 -7 -55 -10 -22 -4 -49 -9
-59 -12 -11 -3 -36 -7 -55 -9 -20 -2 -47 -6 -61 -9 -32 -7 -59 -12 -101 -19
-19 -3 -43 -7 -54 -10 -27 -5 -117 -18 -132 -19 -7 0 -13 -3 -13 -7 0 -3 -8
-6 -17 -6 -20 -1 -85 -11 -123 -19 -22 -5 -55 -10 -115 -19 -11 -2 -20 -5 -20
-6 0 -1 -12 -3 -27 -4 -14 0 -29 -4 -33 -8 -4 -3 -16 -5 -28 -3 -12 3 -40 7
-62 10 -22 3 -51 8 -65 10 -14 3 -36 7 -50 9 -14 2 -43 7 -65 11 -22 4 -49 9
-60 10 -11 2 -20 4 -20 5 0 2 -13 4 -30 5 -16 2 -30 4 -30 5 0 2 -11 4 -25 5
-14 2 -41 7 -60 11 -19 4 -45 7 -57 8 -13 0 -23 3 -23 6 0 4 -15 8 -32 9 -55
4 -73 7 -86 15 -6 4 -16 4 -22 1 -5 -3 -16 -3 -22 2 -7 4 -22 8 -33 10 -42 5
-91 12 -115 18 -28 6 -80 15 -119 20 -14 2 -26 4 -26 5 0 3 -55 12 -82 14 -13
0 -23 4 -23 7 0 3 -12 6 -27 6 -16 0 -41 4 -58 7 -16 4 -46 10 -65 12 -19 3
-51 9 -70 13 -19 5 -42 9 -50 10 -18 1 -47 6 -80 14 -25 6 -88 17 -122 21 -10
1 -27 11 -39 22 -11 10 -23 18 -26 16 -3 -2 -8 0 -11 4 -4 4 0 3 8 -1 8 -5 2
5 -15 23 -16 18 -31 37 -31 42 -1 6 -3 11 -4 13 -3 3 -7 36 -14 112 -3 33 -8
80 -11 105 -3 25 -7 70 -10 100 -4 55 -12 130 -19 205 -3 22 -7 69 -11 105 -3
36 -9 85 -11 110 -10 91 -15 136 -19 180 -3 40 -7 77 -20 210 -2 19 -7 64 -10
100 -4 36 -8 79 -10 95 -1 17 -5 62 -9 100 -4 39 -9 92 -12 120 -3 27 -8 70
-10 95 -21 216 -20 213 -27 230 -15 41 -31 96 -29 103 1 4 -3 7 -9 7 -5 0 -8
4 -4 9 3 5 1 12 -5 16 -6 4 -8 10 -5 15 3 5 1 11 -5 15 -6 4 -8 10 -5 15 3 5
1 17 -4 27 -10 19 -19 44 -18 53 0 3 -6 16 -13 30 -8 14 -16 36 -18 50 -2 13
-8 27 -14 31 -5 3 -9 9 -8 13 1 4 -1 17 -5 29 -4 12 -6 28 -6 35 1 6 -3 12 -8
12 -6 0 -8 6 -5 14 3 8 1 17 -5 21 -6 3 -11 17 -11 30 0 13 -5 27 -10 30 -6 4
-8 11 -5 16 4 5 1 9 -6 9 -7 0 -10 2 -7 5 3 3 -8 43 -24 88 -16 45 -30 87 -31
92 -2 6 -6 16 -10 23 -5 6 -5 12 -1 12 3 0 1 7 -6 15 -7 8 -9 15 -6 15 4 0 1
10 -6 23 -7 12 -13 27 -13 32 -4 30 -18 75 -24 75 -4 0 -8 12 -9 27 -1 15 -8
30 -15 35 -6 4 -8 8 -3 8 5 0 4 6 -2 13 -6 6 -11 15 -11 20 -2 22 -15 64 -24
75 -5 6 -6 12 -2 12 4 0 2 6 -4 13 -6 8 -9 16 -6 19 3 3 -2 22 -12 44 -9 21
-18 48 -20 59 -2 11 -8 22 -13 23 -6 2 -8 7 -5 12 3 5 1 19 -4 32 -5 12 -8 25
-8 28 0 3 -5 16 -12 28 -7 13 -15 36 -17 50 -3 15 -9 31 -14 37 -4 5 -10 21
-12 35 -1 14 -7 28 -11 31 -5 3 -10 12 -12 20 -9 38 -18 59 -26 59 -5 0 -8 3
-7 8 4 14 -13 52 -23 52 -6 0 -7 5 -4 10 3 6 1 10 -5 10 -6 0 -9 4 -6 8 3 5
-10 32 -29 61 -19 28 -29 49 -22 46 7 -4 3 1 -7 9 -11 9 -16 16 -12 16 4 0 -1
12 -12 28 -11 15 -23 37 -26 50 -4 12 -17 32 -29 44 -12 11 -15 18 -7 14 13
-7 13 -6 0 6 -8 7 -16 20 -18 28 -2 8 -9 18 -15 22 -7 4 -8 8 -3 8 5 0 2 8 -7
18 -10 10 -15 21 -12 24 3 3 -1 11 -10 18 -8 7 -15 18 -15 24 0 7 -8 21 -18
32 -9 10 -18 28 -20 39 -2 11 -11 26 -20 33 -9 6 -13 12 -9 12 4 0 -4 18 -18
40 -14 22 -22 40 -18 40 5 0 3 4 -2 8 -6 4 -21 21 -33 39 -12 17 -39 42 -60
54 -20 13 -40 28 -44 33 -5 7 -8 7 -8 1 0 -6 -3 -6 -8 1 -4 6 -20 18 -37 26
-105 54 -124 66 -118 72 6 5 -12 10 -29 7 -5 0 -8 3 -8 8 0 4 -20 19 -44 32
-25 13 -43 26 -41 29 2 3 -5 12 -17 19 -16 10 -19 10 -13 -1 4 -7 -5 1 -20 17
-14 17 -23 23 -19 15 4 -8 -6 -1 -22 16 -47 50 -94 112 -94 123 0 6 -5 11 -11
11 -5 0 -7 5 -4 10 3 5 3 16 -1 22 -5 7 -10 22 -12 33 -6 31 -4 503 3 845 4
168 7 349 8 403 1 60 5 97 12 97 5 0 42 -30 81 -68 39 -37 120 -112 179 -167
60 -55 117 -110 128 -122 11 -12 24 -20 29 -17 4 3 8 -2 8 -10 0 -9 4 -16 9
-16 6 0 29 -20 52 -45 23 -25 47 -45 54 -45 6 0 11 19 11 45 1 25 -2 45 -5 45
-4 0 -7 8 -8 18 -2 27 -9 51 -16 58 -4 4 -7 17 -7 29 0 12 -3 25 -7 29 -4 3
-8 16 -10 28 -2 12 -8 27 -13 33 -5 7 -7 15 -3 18 3 4 0 13 -7 22 -7 8 -9 15
-4 15 4 0 3 5 -3 11 -6 6 -9 17 -7 24 3 7 1 16 -5 20 -6 3 -11 16 -11 29 0 12
-3 26 -7 30 -4 4 -9 19 -11 34 -2 14 -7 32 -13 38 -5 6 -6 14 -2 17 3 4 1 7
-6 7 -7 0 -10 4 -6 9 3 5 1 20 -4 33 -25 62 -25 63 -35 116 -4 23 -12 42 -17
42 -6 0 -7 5 -4 10 3 6 3 16 -2 23 -4 6 -9 18 -10 25 -5 19 -9 33 -23 82 -7
25 -13 48 -12 53 1 4 -2 7 -8 7 -5 0 -7 7 -4 15 4 8 2 15 -3 15 -5 0 -9 8 -10
18 -2 28 -12 63 -21 76 -5 6 -8 19 -7 29 2 9 -2 17 -8 17 -5 0 -8 3 -4 6 3 4
0 22 -8 40 -8 19 -14 35 -14 37 1 2 -20 87 -26 105 -3 7 -5 14 -5 17 0 3 -6
20 -14 39 -8 19 -12 37 -8 40 3 3 0 6 -7 6 -7 0 -9 5 -6 10 4 6 2 16 -3 23 -6
7 -11 15 -11 20 -1 4 -1 8 -2 10 0 1 -2 9 -4 17 -1 8 -8 35 -15 60 -7 25 -11
45 -9 45 1 0 -3 10 -10 23 -7 13 -14 31 -16 40 -2 9 -16 55 -30 102 -15 47
-27 91 -28 98 0 6 -5 12 -10 12 -6 0 -8 3 -4 6 3 3 -1 27 -10 52 -8 26 -15 53
-15 60 -1 6 -4 12 -7 12 -3 0 -7 14 -8 32 -1 17 -7 35 -14 38 -6 4 -10 9 -9
11 4 13 -14 89 -22 89 -5 0 -7 4 -3 9 3 5 1 12 -5 16 -6 4 -8 11 -4 16 3 5 0
16 -6 24 -7 8 -10 15 -6 15 3 0 -3 22 -13 49 -10 28 -17 52 -14 55 2 2 -3 18
-12 35 -8 17 -13 31 -10 31 3 0 0 10 -7 23 -11 20 -15 36 -20 75 -1 6 -5 12
-9 12 -5 0 -6 7 -3 15 4 8 2 15 -3 15 -5 0 -9 8 -10 18 -1 15 -9 49 -13 62 -1
3 -2 8 -1 13 0 4 -4 7 -10 7 -5 0 -8 4 -5 9 3 5 -1 25 -9 45 -8 20 -15 38 -15
41 -1 6 -3 13 -35 120 -14 50 -28 98 -30 109 -3 10 -9 24 -15 30 -5 7 -7 16
-4 19 3 3 2 12 -2 19 -5 7 -9 19 -10 26 -1 6 -14 49 -28 95 -14 45 -28 94 -32
110 -3 15 -10 30 -15 32 -4 3 -6 12 -2 20 3 8 0 15 -7 15 -6 0 -9 4 -6 9 4 5
1 22 -5 38 -7 15 -14 37 -16 48 -2 11 -7 31 -13 45 -17 45 -54 175 -52 183 1
4 -2 7 -6 7 -4 0 -8 8 -9 18 -5 42 -16 83 -26 89 -6 3 -7 1 -3 -5 4 -7 1 -12
-6 -12 -11 0 -80 -63 -129 -117 -57 -64 -119 -164 -118 -190 1 -3 -4 -9 -9
-12 -15 -9 -52 -93 -46 -102 3 -5 0 -9 -5 -9 -6 0 -10 -3 -9 -7 1 -5 -6 -33
-16 -64 -17 -56 -21 -80 -32 -174 -8 -61 -8 -13567 -1 -13645 3 -30 8 -71 12
-90 3 -19 7 -43 9 -52 1 -10 5 -21 9 -24 4 -4 7 -18 7 -31 0 -13 5 -23 12 -23
6 0 9 -3 5 -6 -8 -8 21 -81 47 -118 11 -16 14 -26 7 -22 -14 9 18 -45 33 -56
5 -3 11 -15 12 -25 2 -9 8 -19 13 -21 6 -2 11 -8 11 -14 0 -5 27 -41 60 -80
33 -38 60 -67 60 -65 0 3 19 -13 43 -35 23 -22 51 -49 62 -59 12 -10 26 -19
33 -19 7 0 12 -4 12 -10 0 -5 5 -10 12 -10 6 0 20 -8 31 -18 15 -12 19 -13 13
-2 -6 12 -5 12 6 -1 7 -8 33 -26 58 -40 25 -13 48 -28 52 -34 5 -7 8 -7 8 0 0
6 3 6 8 -1 4 -6 32 -24 62 -40 30 -16 57 -31 60 -34 3 -3 25 -16 50 -29 80
-43 84 -46 98 -59 13 -11 26 -15 38 -9 3 1 10 -6 15 -16 6 -9 17 -17 24 -17 8
0 15 -5 15 -11 0 -5 4 -8 9 -5 5 4 11 2 13 -3 1 -5 10 -11 18 -13 8 -2 23 -11
34 -20 10 -10 23 -15 28 -12 4 3 8 0 8 -5 0 -6 6 -11 14 -11 7 0 19 -7 26 -15
7 -8 16 -13 20 -10 4 3 11 -2 14 -11 3 -8 10 -12 16 -9 5 3 10 1 10 -5 0 -6 5
-8 10 -5 6 3 10 1 10 -4 0 -6 5 -11 11 -11 6 0 22 -9 36 -20 14 -11 29 -18 33
-15 4 3 11 -2 14 -11 3 -8 10 -13 15 -10 5 4 11 2 13 -3 1 -5 10 -11 18 -13 8
-2 23 -11 34 -20 10 -10 23 -15 28 -12 4 3 8 0 8 -6 0 -6 4 -9 9 -6 5 3 12 -1
15 -10 3 -8 10 -12 16 -9 5 3 10 1 10 -4 0 -6 7 -11 15 -11 8 0 15 -4 15 -9 0
-8 34 -21 46 -18 3 1 10 -6 15 -15 6 -10 17 -18 24 -18 8 0 15 -5 15 -11 0 -6
7 -8 15 -5 9 3 18 -1 21 -9 4 -8 10 -12 15 -9 5 3 9 1 9 -4 0 -4 21 -19 48
-32 26 -12 54 -29 62 -36 8 -7 22 -14 30 -16 8 -2 17 -5 20 -8 9 -10 95 -58
104 -58 5 0 12 -4 15 -9 14 -19 151 -97 151 -86 0 4 4 4 8 -2 15 -21 56 -50
48 -35 -4 8 0 6 8 -4 9 -11 16 -16 16 -10 0 5 4 4 8 -2 10 -16 79 -54 98 -54
8 0 13 -4 9 -9 -3 -5 4 -13 16 -16 12 -4 37 -18 57 -31 19 -13 37 -22 39 -20
3 2 13 -4 24 -15 11 -11 24 -17 29 -14 4 3 10 2 12 -3 1 -4 37 -27 78 -52 41
-25 84 -50 95 -57 11 -7 27 -15 35 -20 8 -4 36 -19 63 -35 26 -15 47 -25 47
-22 0 2 10 -4 22 -15 11 -11 25 -18 30 -15 4 3 8 1 8 -3 0 -5 17 -17 37 -28
21 -11 44 -26 51 -33 8 -7 18 -10 23 -7 5 4 9 2 9 -3 0 -9 70 -47 83 -44 4 1
7 -3 7 -8 0 -6 18 -18 40 -27 22 -10 40 -21 40 -26 0 -4 4 -5 10 -2 5 3 10 1
10 -4 0 -6 7 -11 15 -11 8 0 15 -5 15 -12 0 -6 3 -8 6 -5 4 3 18 -2 32 -13 13
-11 28 -18 32 -15 4 3 10 -2 14 -10 3 -8 10 -15 17 -15 6 0 24 -9 40 -21 16
-11 29 -17 29 -12 0 4 4 3 8 -2 12 -17 95 -68 87 -53 -5 7 2 3 14 -10 12 -12
26 -20 32 -17 5 4 9 2 9 -4 0 -6 17 -18 38 -28 20 -9 39 -19 42 -22 3 -4 19
-13 35 -21 17 -8 32 -17 35 -20 3 -3 23 -14 45 -25 22 -11 43 -24 46 -28 6 -9
70 -45 126 -71 17 -9 35 -20 38 -26 4 -6 11 -8 16 -5 5 4 9 2 9 -2 0 -5 9 -14
21 -21 17 -11 20 -11 14 0 -3 7 0 5 8 -4 8 -10 17 -15 20 -11 4 3 7 2 7 -4 0
-5 21 -21 48 -34 26 -13 53 -30 60 -37 8 -6 17 -10 22 -7 5 3 10 2 12 -2 1 -5
38 -30 81 -56 43 -26 76 -42 72 -35 -4 7 0 5 8 -5 8 -9 17 -17 21 -17 4 0 23
-11 43 -25 20 -13 40 -22 44 -20 4 3 10 -2 13 -11 3 -8 10 -12 16 -9 5 3 10 2
10 -3 0 -5 21 -20 48 -33 26 -13 49 -27 50 -32 2 -4 8 -5 13 -1 5 3 12 -2 15
-10 3 -9 11 -16 18 -16 7 0 36 -15 66 -34 30 -19 58 -32 62 -30 5 3 8 0 8 -5
0 -6 7 -11 15 -11 8 0 15 -4 15 -10 0 -5 5 -10 11 -10 6 0 24 -9 40 -21 16
-11 29 -17 29 -12 0 4 6 1 13 -8 12 -16 46 -33 60 -31 4 1 7 -1 7 -6 0 -4 17
-16 38 -27 20 -11 43 -26 50 -33 8 -7 17 -10 22 -7 5 3 10 2 12 -2 1 -5 23
-21 47 -36 24 -16 40 -23 36 -15 -5 7 2 3 14 -10 12 -12 26 -20 31 -17 4 3 11
-2 14 -11 3 -8 10 -12 16 -9 5 3 10 1 10 -5 0 -6 4 -8 10 -5 5 3 10 2 10 -4 0
-5 10 -13 23 -17 12 -4 24 -10 27 -13 3 -4 37 -25 75 -46 39 -22 84 -48 100
-58 17 -9 38 -20 48 -23 9 -4 17 -11 17 -16 0 -5 4 -6 10 -3 6 3 10 2 10 -3 0
-7 48 -34 75 -42 6 -2 16 -10 23 -19 11 -13 12 -13 7 -1 -5 12 -4 12 7 -1 7
-8 20 -18 28 -22 8 -4 33 -18 55 -32 22 -13 56 -33 75 -43 54 -28 83 -46 103
-61 9 -8 17 -11 17 -7 0 4 7 0 16 -8 8 -9 20 -13 26 -10 7 4 8 2 4 -4 -6 -11
0 -14 20 -11 4 0 10 -3 13 -8 3 -4 15 -15 25 -23 18 -13 19 -13 12 0 -6 13 -5
12 6 0 20 -24 84 -61 91 -53 4 3 7 1 7 -6 0 -7 4 -10 9 -7 5 3 11 -1 15 -9 3
-8 15 -15 26 -15 12 0 19 -4 15 -9 -5 -9 32 -27 48 -23 4 1 7 -1 7 -6 0 -4 17
-16 37 -27 21 -10 53 -30 71 -43 18 -13 36 -22 39 -19 2 3 15 -4 28 -15 13
-11 27 -20 32 -20 4 0 20 -9 35 -19 14 -10 31 -19 37 -19 6 0 11 -3 11 -7 0
-5 23 -19 50 -32 28 -14 50 -28 50 -31 0 -3 16 -12 35 -20 19 -8 35 -18 35
-22 0 -5 4 -7 9 -3 5 3 16 -1 24 -10 8 -8 21 -16 28 -17 7 -2 21 -11 31 -21
10 -10 23 -15 28 -12 6 4 10 2 10 -2 0 -5 14 -17 30 -26 16 -10 30 -15 30 -11
0 4 9 -2 21 -14 11 -12 24 -20 30 -17 5 4 9 1 9 -5 0 -6 4 -9 9 -6 5 3 12 -1
15 -10 3 -8 10 -12 16 -9 5 3 10 1 10 -4 0 -6 7 -11 15 -11 8 0 15 -4 15 -9 0
-7 28 -19 47 -19 3 0 9 -4 12 -9 12 -16 74 -56 66 -42 -5 8 3 4 16 -8 13 -12
31 -23 39 -25 8 -2 26 -13 40 -26 14 -12 36 -25 50 -29 14 -3 27 -9 30 -13 3
-4 25 -18 49 -31 61 -34 77 -43 95 -58 9 -7 16 -10 16 -6 0 4 15 -4 33 -17 17
-13 51 -34 74 -46 l42 -21 21 27 c30 40 72 89 100 119 14 14 18 22 10 18 -8
-4 2 7 23 25 21 18 36 34 34 37 -3 2 13 23 34 46 22 22 39 45 39 49 0 4 13 21
30 38 16 16 26 30 23 30 -4 0 6 15 23 33 51 55 70 81 54 72 -8 -5 -1 5 16 21
17 16 43 49 59 73 15 25 38 56 51 70 13 14 24 29 24 32 0 3 13 23 30 44 16 20
27 41 24 46 -3 5 3 9 12 9 10 0 15 3 11 6 -3 3 4 16 15 29 22 25 39 53 61 98
7 15 16 24 20 20 4 -3 7 1 7 10 0 10 5 17 10 17 6 0 10 6 10 13 0 8 9 22 20
32 11 10 20 23 20 30 0 7 9 20 20 30 11 10 20 24 20 30 0 7 7 18 15 25 8 7 12
16 9 21 -3 5 -1 9 3 9 5 0 19 20 33 45 14 25 28 45 32 45 3 0 10 10 14 22 3
12 13 28 20 36 8 7 11 18 8 24 -4 6 -2 8 3 5 10 -6 28 19 25 35 -1 3 5 12 13
18 8 7 15 17 15 22 0 5 7 16 15 25 8 8 13 18 10 23 -3 4 2 11 11 14 8 3 12 10
9 16 -3 5 -1 10 5 10 6 0 16 12 22 27 7 16 20 39 30 52 10 13 15 27 12 32 -3
5 -1 9 3 9 10 0 49 70 46 82 -2 4 2 8 8 8 5 0 15 13 20 30 6 16 15 30 21 30 6
0 7 7 4 16 -3 8 -2 12 4 9 9 -5 12 1 9 21 0 4 3 10 8 13 4 3 15 15 23 25 13
18 13 19 0 11 -8 -4 -5 2 8 14 20 20 27 35 20 44 -2 2 5 11 15 21 9 10 14 22
11 28 -4 7 -2 8 4 4 7 -4 12 -2 12 3 0 18 3 26 17 39 7 8 11 17 8 22 -3 4 2
10 10 14 9 3 12 12 8 23 -3 10 -2 15 2 11 8 -8 50 69 47 84 -1 5 2 8 6 8 5 0
17 20 28 45 10 25 22 45 27 45 5 0 7 6 5 12 -3 7 4 21 14 32 10 11 18 28 18
37 0 10 6 24 13 31 6 7 27 45 46 83 18 39 47 96 62 127 16 32 26 58 22 58 -5
0 -3 4 2 8 6 4 17 16 25 26 13 17 13 19 0 11 -8 -5 -5 4 8 19 12 16 19 32 16
37 -3 5 -1 9 4 9 9 0 25 37 23 53 -1 4 3 7 8 7 8 0 21 34 20 54 -1 5 3 12 8
15 14 9 63 112 50 104 -7 -3 -4 3 6 14 9 11 14 23 10 26 -3 4 -2 7 4 7 12 0
26 37 23 59 -1 7 3 10 9 6 6 -3 11 1 11 10 0 8 4 23 10 33 5 9 24 49 41 87 17
39 37 83 45 99 7 16 11 33 7 39 -4 6 -1 7 7 2 10 -6 12 -4 7 8 -3 10 -3 17 2
17 8 0 13 13 22 55 2 6 9 16 16 23 11 12 15 26 12 48 0 4 4 10 11 14 6 4 13
13 14 21 3 13 7 24 38 97 6 15 11 30 10 35 -1 4 3 7 8 7 5 0 9 3 8 7 -1 8 3
19 34 93 11 25 23 54 28 65 13 32 35 90 35 95 1 3 11 27 23 54 12 27 20 51 18
54 -3 2 2 11 10 19 8 8 12 18 9 23 -3 5 -1 11 5 15 5 3 10 15 10 26 0 10 5 19
12 19 6 0 9 3 5 6 -3 3 3 26 13 50 11 24 16 44 12 44 -4 0 -1 4 6 9 7 4 14 18
15 29 1 12 4 22 8 22 6 0 23 58 20 73 0 4 4 7 9 7 6 0 10 6 8 12 -1 7 3 22 9
33 6 11 13 29 14 40 2 11 7 23 12 26 4 3 9 15 12 27 2 11 9 30 15 41 6 12 8
21 6 21 -3 0 3 20 14 45 11 25 16 45 12 45 -4 0 -2 4 3 8 11 7 40 91 37 105
-1 4 2 7 8 7 5 0 7 7 4 15 -4 8 -1 15 5 15 7 0 11 6 10 12 -1 7 0 20 4 28 25
66 39 110 36 113 -2 2 2 11 10 20 7 10 10 17 6 17 -4 0 -2 7 5 15 7 8 9 15 5
15 -4 0 -3 6 2 13 9 10 50 127 57 160 3 12 9 30 23 65 4 9 7 22 8 27 0 6 4 16
8 22 8 13 18 48 19 71 1 6 5 12 9 12 5 0 6 7 3 15 -4 8 -1 15 6 15 6 0 9 4 5
9 -3 5 0 13 6 16 5 4 8 13 5 20 -2 7 -2 16 2 20 4 4 8 11 8 16 1 5 3 11 4 14
1 3 3 8 5 13 1 4 4 14 8 22 15 36 52 166 51 178 -1 6 2 12 6 12 7 0 25 67 22
83 -1 4 2 7 6 7 5 0 9 6 10 13 0 6 3 23 7 37 4 14 7 31 7 38 1 6 4 12 8 12 4
0 7 6 8 13 2 22 7 42 15 55 5 6 5 12 1 12 -3 0 -1 7 6 15 7 8 10 15 6 15 -3 0
2 21 12 48 10 26 17 54 17 62 0 8 2 17 5 20 3 3 12 28 18 55 13 54 16 62 25
85 5 13 31 105 41 150 2 8 12 42 22 75 9 33 18 67 19 75 1 8 7 26 12 40 6 14
9 28 6 32 -2 4 3 18 12 31 8 13 13 26 10 29 -3 3 1 24 9 46 9 23 13 42 11 42
-2 0 3 16 11 35 8 19 12 35 9 35 -3 0 -1 8 4 18 5 9 11 31 14 47 3 17 10 43
16 59 6 16 9 31 6 34 -2 3 0 11 5 17 6 7 12 27 13 44 1 17 4 31 7 31 3 0 6 8
7 17 1 10 20 90 42 178 22 88 42 169 44 180 1 11 6 26 10 33 5 6 6 12 3 12 -2
0 2 24 10 53 8 28 17 67 19 86 3 18 8 37 11 42 3 5 7 19 10 31 13 67 17 85 20
103 2 11 10 47 19 80 8 33 17 74 20 90 3 17 11 48 17 70 5 22 12 51 14 65 3
14 7 32 10 40 3 8 8 29 10 45 4 29 7 48 19 98 3 12 8 37 10 56 3 18 8 37 11
43 3 5 8 21 10 36 7 49 12 77 15 77 1 0 3 14 4 30 2 17 4 30 5 30 2 0 14 56
35 170 2 11 4 20 5 20 1 0 4 14 5 30 2 17 7 44 11 60 3 17 7 37 8 45 1 9 4 20
8 25 3 6 4 20 3 33 -1 12 2 22 7 22 4 0 7 3 6 8 -3 10 9 85 32 197 5 28 13 70
16 95 9 68 12 85 14 85 2 0 4 14 5 30 2 17 4 30 5 30 1 0 4 14 6 30 2 17 6 39
7 50 13 73 21 122 23 138 1 9 2 18 4 20 3 3 9 38 14 87 3 25 8 56 11 70 2 13
7 42 10 65 3 22 8 51 10 65 3 14 7 43 10 65 2 22 7 51 10 65 3 14 7 43 10 65
3 22 7 53 10 69 3 15 8 49 11 75 8 68 13 112 19 151 6 37 11 81 19 145 3 22 8
58 11 80 6 41 12 85 20 165 3 25 7 61 10 80 2 19 7 60 10 90 3 30 8 73 11 95
2 22 7 58 9 80 2 22 7 63 10 90 3 28 7 73 10 100 2 28 6 73 10 100 5 45 11
113 20 215 1 19 6 71 10 115 8 87 10 109 20 235 3 47 8 112 11 145 2 33 7 98
10 145 2 47 7 117 9 155 18 283 35 687 40 950 4 186 7 766 5 775 -1 3 -3 86
-5 185 -7 378 -22 685 -50 1045 -3 41 -8 100 -10 130 -7 90 -14 162 -20 215
-4 28 -8 73 -10 100 -6 79 -15 167 -21 205 -3 19 -7 53 -9 75 -2 22 -8 67 -12
100 -4 33 -8 71 -9 85 -1 14 -3 25 -4 25 -1 0 -3 14 -5 30 -3 30 -10 76 -20
145 -3 19 -7 51 -10 70 -3 19 -7 50 -10 67 -3 18 -7 45 -9 60 -3 16 -8 44 -11
63 -7 35 -10 57 -20 115 -2 17 -6 41 -9 55 -3 14 -7 41 -10 60 -3 19 -9 49
-13 65 -4 17 -8 38 -9 48 -1 9 -2 18 -4 20 -2 3 -8 32 -15 72 -13 86 -16 101
-22 115 -5 15 -10 36 -16 83 -2 13 -7 28 -11 35 -4 7 -5 12 -2 12 2 0 0 15 -5
33 -5 17 -12 48 -15 67 -8 44 -10 52 -17 70 -4 8 -8 29 -11 45 -2 17 -5 31 -6
33 -3 3 -3 1 -20 85 -7 37 -17 67 -22 67 -4 0 -5 6 -2 14 3 8 1 17 -5 20 -6 4
-8 13 -5 20 3 8 0 17 -5 21 -6 3 -9 10 -6 15 3 5 -1 28 -10 52 -8 25 -16 54
-18 66 -2 12 -6 25 -10 28 -4 4 -7 17 -7 29 0 11 -5 26 -12 33 -7 7 -9 12 -5
12 3 0 0 18 -8 40 -8 22 -12 40 -9 40 2 0 -2 13 -11 30 -8 16 -15 32 -15 35 0
3 0 6 -1 8 0 1 -2 9 -4 17 -3 16 -32 105 -42 130 -8 19 -11 31 -16 50 -1 8 -9
25 -15 38 -7 12 -10 22 -7 22 3 0 -1 13 -10 30 -8 16 -16 41 -17 55 -1 14 -6
25 -10 25 -4 0 -8 9 -8 20 0 11 -5 20 -11 20 -5 0 -7 5 -4 11 4 5 -1 20 -12
31 -10 12 -12 18 -4 13 11 -6 11 -2 -2 21 -19 36 -31 67 -29 77 1 4 -3 7 -10
7 -6 0 -8 3 -5 6 3 4 1 16 -5 28 -7 11 -11 24 -10 29 1 4 -2 7 -6 7 -5 0 -9 6
-9 13 -1 21 -8 42 -16 48 -5 3 -10 12 -11 20 -5 28 -78 183 -88 187 -4 2 -5 9
-2 15 2 7 -4 22 -15 34 -11 11 -18 23 -15 26 5 5 -31 71 -55 101 -10 12 -11
17 -3 12 11 -7 11 -4 0 13 -7 12 -16 21 -21 21 -4 0 -6 4 -2 9 3 5 0 15 -7 23
-7 7 -14 20 -16 28 -2 8 -10 20 -17 26 -8 6 -12 14 -8 17 3 4 1 7 -6 7 -7 0
-9 5 -6 11 4 5 -1 19 -11 30 -17 18 -35 47 -50 79 -4 8 -15 21 -23 28 -13 11
-13 12 -1 7 9 -4 6 2 -5 12 -11 10 -21 25 -23 33 -2 8 -8 17 -13 18 -5 2 -9 9
-9 16 0 6 -14 27 -32 46 -17 19 -31 37 -30 40 1 3 -5 13 -13 23 -8 9 -15 21
-15 25 0 4 -10 18 -23 32 -13 14 -27 32 -33 41 -26 46 -231 263 -304 322 -51
41 -54 43 -64 44 -5 1 -12 5 -15 10 -12 18 -99 72 -105 66 -3 -4 -6 -2 -6 3 0
9 -64 42 -93 48 -7 2 -25 8 -40 15 -16 6 -32 9 -37 6 -5 -3 -11 -1 -14 4 -5 7
-86 32 -116 36 -3 0 -11 4 -17 8 -7 5 -13 6 -13 3 0 -3 -11 -1 -25 4 -14 5
-38 12 -53 15 -38 8 -57 13 -57 15 0 1 -7 3 -15 5 -8 2 -28 6 -45 10 -16 4
-40 8 -52 9 -13 0 -23 4 -23 8 0 4 -8 7 -17 6 -10 0 -29 3 -43 6 -34 8 -69 15
-105 21 -16 3 -43 8 -60 11 -64 12 -115 19 -205 29 -36 4 -78 9 -95 11 -91 11
-411 24 -418 17z m1794 -470 c13 -16 12 -17 -3 -4 -10 7 -18 15 -18 17 0 8 8
3 21 -13z m40 -40 c13 -16 12 -17 -3 -4 -17 13 -22 21 -14 21 2 0 10 -8 17
-17z"/>
<path d="M3229 15173 c-2 -29 -7 -74 -14 -133 -3 -30 -8 -73 -10 -95 -2 -22
-4 -40 -5 -40 -1 0 -5 -46 -15 -165 -2 -25 -4 -45 -5 -45 -5 0 -6 -45 -1 -46
11 -3 80 -9 276 -23 137 -10 223 -17 265 -22 25 -3 77 -7 115 -9 39 -3 102 -7
140 -11 39 -3 93 -7 120 -9 28 -2 84 -6 125 -10 120 -10 125 -10 122 3 -1 7
-5 38 -8 70 -4 31 -7 66 -9 77 -4 40 -17 72 -28 72 -7 1 -59 20 -117 43 -58
23 -109 42 -115 44 -5 1 -21 8 -34 15 -19 11 -22 11 -15 -1 6 -10 5 -11 -7 -1
-14 11 -190 83 -213 87 -6 1 -22 8 -36 16 -14 7 -27 13 -30 13 -3 0 -16 4 -30
9 -14 5 -32 11 -40 13 -8 2 -28 10 -44 19 -16 8 -33 13 -38 10 -4 -3 -8 -1 -8
4 0 5 -15 13 -32 17 -18 4 -35 9 -38 10 -15 7 -46 16 -54 15 -5 -1 -12 3 -16
10 -4 6 -13 12 -21 13 -20 3 -115 40 -151 58 -25 12 -28 11 -29 -8z"/>
<path d="M6883 15182 c-13 -2 -23 -7 -23 -11 0 -4 -6 -8 -12 -8 -17 -1 -160
-53 -173 -63 -5 -4 -25 -11 -42 -15 -18 -3 -33 -11 -33 -16 0 -6 -4 -8 -10 -4
-5 3 -17 1 -27 -4 -45 -23 -88 -39 -95 -35 -4 3 -8 0 -8 -6 0 -6 -4 -8 -10 -5
-5 3 -10 1 -10 -5 0 -6 -4 -8 -10 -5 -5 3 -27 -3 -49 -15 -22 -11 -48 -21 -58
-23 -10 -2 -34 -10 -53 -19 -19 -9 -54 -22 -77 -29 -24 -7 -43 -17 -43 -22 0
-6 -3 -8 -6 -4 -3 3 -25 -3 -49 -13 -24 -10 -46 -16 -49 -13 -3 4 -6 2 -6 -3
0 -5 -10 -10 -22 -11 -11 -1 -24 -7 -28 -13 -4 -7 -10 -11 -14 -11 -3 1 -7 1
-8 0 -2 0 -10 -2 -18 -4 -8 -2 -28 -9 -45 -16 -16 -7 -32 -13 -35 -14 -32 -8
-50 -18 -51 -28 0 -7 -3 -28 -5 -47 -2 -19 -6 -59 -9 -88 -3 -30 -7 -59 -8
-65 -1 -7 10 -11 28 -9 114 8 158 11 215 16 36 4 97 9 135 12 39 3 99 7 135
10 36 3 85 7 110 8 64 5 194 16 265 22 105 9 189 15 225 17 42 3 63 14 53 30
-4 6 -8 30 -9 52 -1 22 -5 69 -9 105 -4 36 -9 81 -10 100 -2 19 -4 35 -5 35
-1 0 -3 20 -5 45 -5 68 -16 175 -18 175 -1 1 -12 -1 -24 -3z"/>
<path d="M23845 2370 l-129 -5 -1 -127 c-1 -70 3 -124 7 -122 4 3 8 1 8 -3 0
-5 53 -8 118 -8 l117 0 0 -415 0 -415 -115 0 c-63 0 -120 -3 -125 -7 -6 -4
-10 -57 -10 -130 l0 -123 398 -1 c219 0 400 3 402 7 10 15 6 242 -3 248 -6 4
-69 6 -141 6 l-130 0 0 415 0 415 122 -1 c67 0 130 2 140 4 15 4 17 19 17 128
0 91 -3 126 -12 129 -19 7 -515 11 -663 5z"/>
<path d="M24980 2359 c0 -5 -4 -7 -10 -4 -5 3 -10 1 -10 -4 0 -6 -6 -10 -12
-8 -7 1 -12 -4 -10 -10 1 -7 -1 -12 -5 -10 -5 1 -9 -2 -10 -7 -1 -5 -7 -12
-15 -17 -19 -12 -24 -1168 -6 -1201 22 -38 52 -65 83 -75 35 -11 575 -10 621
1 29 6 99 66 78 66 -5 0 -3 4 5 9 12 8 15 98 15 581 1 315 -2 574 -7 577 -4 2
-5 8 -2 13 3 5 -2 16 -11 24 -8 9 -12 16 -8 16 13 0 -19 30 -49 45 -25 12 -83
15 -339 15 -210 0 -308 -3 -308 -11z m455 -664 l0 -410 -137 0 c-85 0 -138 4
-139 10 -1 6 -2 188 -3 405 -1 301 2 396 11 400 7 3 70 5 140 5 l128 0 0 -410z"/>
<path d="M23160 1268 c-23 -8 -22 -3 -24 -127 -1 -59 3 -99 10 -110 10 -13 32
-16 118 -17 58 0 106 3 106 8 0 5 4 7 9 4 15 -10 19 16 19 122 1 78 -3 103
-15 113 -17 15 -189 20 -223 7z"/>
</g>
</svg>
