<svg xmlns="http://www.w3.org/2000/svg" width="933.333" height="933.333" preserveAspectRatio="xMidYMid meet" version="1.0" viewBox="0 0 700 700"><metadata>Created by potrace 1.11, written by Peter Selinger 2001-2013</metadata><g fill="#000" stroke="none"><path d="M3278 6995 c-1 -1 -43 -6 -93 -9 -173 -13 -327 -35 -490 -71 -5 -1 -28 -5 -50 -9 -121 -24 -343 -94 -501 -159 -303 -125 -556 -277 -819 -491 -27 -22 -52 -43 -55 -46 -3 -3 -43 -39 -90 -80 -125 -111 -283 -273 -394 -405 -32 -39 -67 -80 -78 -93 -43 -52 -159 -212 -212 -295 -225 -350 -378 -745 -445 -1152 -40 -243 -46 -324 -46 -630 0 -276 8 -419 35 -590 5 -33 12 -78 15 -100 29 -191 105 -466 186 -672 74 -190 181 -398 287 -562 31 -47 61 -94 67 -103 71 -117 257 -342 404 -489 372 -372 853 -665 1406 -855 178 -62 445 -128 600 -148 17 -3 51 -7 77 -11 119 -17 260 -23 468 -20 124 2 234 6 245 8 11 3 52 8 90 12 103 11 111 13 300 50 550 110 1114 382 1554 749 102 85 356 335 431 425 25 29 53 63 64 75 19 21 85 103 99 121 4 5 21 28 37 50 16 22 34 46 40 52 6 7 43 63 84 125 205 315 338 631 420 998 26 118 30 139 42 225 3 28 8 59 10 70 2 11 7 51 10 88 3 37 8 78 10 90 9 37 12 595 4 702 -7 93 -13 148 -26 250 -23 181 -100 478 -170 658 -94 241 -319 644 -461 827 -170 220 -238 297 -400 457 -413 406 -930 699 -1498 848 -151 40 -371 82 -471 90 -39 3 -86 8 -105 11 -35 6 -575 15 -581 9z m149 -703 c39 -25 47 -185 16 -327 -2 -11 -6 -31 -9 -45 -15 -79 -65 -191 -106 -239 -38 -43 -52 -79 -38 -96 18 -22 93 -36 260 -50 139 -11 196 -16 235 -20 22 -3 72 -7 110 -10 39 -4 84 -8 100 -10 17 -2 53 -7 80 -10 28 -3 59 -8 70 -10 11 -3 38 -7 60 -10 701 -96 1313 -439 1633 -915 63 -94 66 -100 127 -220 56 -111 85 -182 128 -310 51 -152 68 -223 112 -460 3 -16 12 -91 20 -157 21 -183 21 -570 1 -691 -3 -15 -8 -54 -11 -86 -3 -33 -7 -71 -10 -85 -2 -14 -11 -75 -20 -136 -31 -210 -43 -272 -55 -280 -9 -5 -12 9 -29 110 -19 109 -20 120 -26 165 -3 25 -7 56 -10 70 -2 14 -6 36 -9 50 -10 63 -48 204 -80 302 -103 314 -266 595 -487 838 -53 58 -135 163 -149 190 -25 48 -15 80 42 134 66 62 108 123 141 201 29 71 66 186 73 234 3 18 7 42 9 52 5 26 -30 57 -74 66 -76 17 -869 7 -1031 -12 -19 -2 -78 -7 -131 -10 -53 -3 -105 -7 -115 -9 -10 -2 -53 -7 -94 -11 -41 -4 -88 -9 -105 -11 -16 -2 -52 -6 -80 -9 -27 -3 -61 -8 -75 -10 -14 -2 -49 -7 -79 -10 -30 -4 -63 -9 -75 -11 -12 -2 -41 -6 -66 -9 -47 -6 -327 -51 -370 -60 -14 -3 -39 -8 -56 -10 -47 -7 -393 -80 -514 -109 -187 -44 -430 -115 -669 -197 -129 -43 -249 -79 -267 -79 -38 0 -41 7 -44 95 0 35 -8 70 -16 84 -15 21 -20 23 -72 15 -115 -15 -145 -13 -195 14 -67 36 -213 186 -286 294 -61 89 -49 120 99 268 41 41 104 100 139 130 36 30 81 69 100 86 20 17 86 70 146 118 61 48 117 93 125 99 125 101 699 531 807 605 21 14 144 101 188 132 248 178 573 380 609 380 6 0 16 -4 23 -8z m1658 -1926 c178 -18 207 -39 178 -126 -22 -64 -74 -141 -142 -209 -64 -64 -119 -100 -224 -146 -38 -16 -69 -34 -69 -40 -1 -12 50 -39 117 -60 96 -32 176 -70 256 -122 203 -132 417 -395 559 -688 123 -253 164 -414 165 -650 0 -185 -19 -291 -85 -458 -176 -451 -629 -823 -1254 -1031 -130 -44 -188 -61 -236 -70 -118 -21 -153 -26 -205 -31 -33 -3 -71 -8 -85 -10 -136 -22 -647 -22 -840 0 -105 13 -126 15 -150 19 -14 3 -43 7 -65 11 -201 30 -428 119 -700 274 -178 103 -418 308 -575 493 -93 109 -91 107 -147 188 -119 176 -191 317 -266 530 -66 186 -92 251 -120 308 -19 38 -24 42 -47 37 -40 -10 -118 -76 -219 -185 -105 -113 -136 -139 -153 -122 -11 11 -13 54 -4 119 5 36 68 332 82 383 2 8 11 42 19 75 29 124 37 153 76 295 93 335 143 480 166 480 50 0 280 -232 477 -480 37 -47 73 -93 81 -102 25 -30 122 -173 135 -197 12 -23 12 -24 -21 -18 -19 4 -73 17 -120 30 -104 29 -205 34 -234 13 -26 -18 -29 -115 -9 -231 88 -507 551 -1072 1106 -1351 232 -116 386 -169 558 -192 74 -9 541 -9 609 1 159 23 340 111 536 262 289 223 423 502 378 784 -51 318 -324 607 -743 788 -167 72 -388 138 -530 158 -24 4 -47 8 -50 10 -3 1 -32 6 -65 9 -33 4 -67 9 -75 11 -8 2 -42 6 -75 9 -167 16 -299 53 -310 86 -6 19 13 60 27 60 4 0 23 14 43 31 40 36 46 76 16 103 -11 10 -48 21 -85 27 -37 5 -77 16 -89 24 -31 20 -63 79 -78 140 -16 70 -20 335 -6 380 21 68 81 98 312 150 66 15 131 29 145 31 14 3 59 12 100 21 41 8 82 16 90 18 8 1 33 6 55 10 22 4 49 9 60 11 26 4 139 22 190 29 22 3 65 10 95 15 30 5 75 12 100 15 25 3 61 8 80 10 19 3 55 7 80 10 25 3 61 7 80 10 39 5 212 22 310 31 36 3 83 7 105 9 22 2 117 7 210 11 94 3 171 7 172 8 5 4 254 -3 308 -8z" transform="translate(0.000000,700.000000) scale(0.100000,-0.100000)"/><path d="M2295 5281 c-57 -33 -246 -189 -269 -222 -8 -12 -13 -26 -10 -31 9 -15 160 -9 215 9 108 35 185 144 163 231 -12 48 -34 51 -99 13z" transform="translate(0.000000,700.000000) scale(0.100000,-0.100000)"/><path d="M3870 4059 c-37 -7 -99 -17 -165 -25 -67 -8 -176 -44 -182 -60 -8 -21 27 -55 93 -88 99 -50 176 -35 289 57 69 56 125 110 125 120 0 9 -109 7 -160 -4z" transform="translate(0.000000,700.000000) scale(0.100000,-0.100000)"/></g></svg>