<?xml version="1.0" encoding="UTF-8" standalone="no"?>
<!-- Created with Inkscape (http://www.inkscape.org/) -->

<svg
   xmlns:dc="http://purl.org/dc/elements/1.1/"
   xmlns:cc="http://creativecommons.org/ns#"
   xmlns:rdf="http://www.w3.org/1999/02/22-rdf-syntax-ns#"
   xmlns:svg="http://www.w3.org/2000/svg"
   xmlns="http://www.w3.org/2000/svg"
   xmlns:sodipodi="http://sodipodi.sourceforge.net/DTD/sodipodi-0.dtd"
   xmlns:inkscape="http://www.inkscape.org/namespaces/inkscape"
   width="256"
   height="256"
   viewBox="0 0 67.733332 67.733335"
   version="1.1"
   id="svg8"
   inkscape:version="0.92.4 (5da689c313, 2019-01-14)"
   sodipodi:docname="hydre.svg">
  <defs
     id="defs2" />
  <sodipodi:namedview
     id="base"
     pagecolor="#ffffff"
     bordercolor="#666666"
     borderopacity="1.0"
     inkscape:pageopacity="0.0"
     inkscape:pageshadow="2"
     inkscape:zoom="1.979899"
     inkscape:cx="189.75085"
     inkscape:cy="206.31939"
     inkscape:document-units="mm"
     inkscape:current-layer="layer1"
     showgrid="false"
     units="px"
     inkscape:window-width="1918"
     inkscape:window-height="1078"
     inkscape:window-x="0"
     inkscape:window-y="0"
     inkscape:window-maximized="1" />
  <metadata
     id="metadata5">
    <rdf:RDF>
      <cc:Work
         rdf:about="">
        <dc:format>image/svg+xml</dc:format>
        <dc:type
           rdf:resource="http://purl.org/dc/dcmitype/StillImage" />
        <dc:title></dc:title>
      </cc:Work>
    </rdf:RDF>
  </metadata>
  <g
     inkscape:label="Layer 1"
     inkscape:groupmode="layer"
     id="layer1"
     transform="translate(0,-229.26665)">
    <path
       style="fill:#000000;stroke-width:0.56556565"
       d="M 28.946005,296.63778 C 21.048103,295.41853 12.855089,290.95558 8.0803312,285.27159 2.5259101,278.65958 -0.01066042,271.52604 3.3668056e-5,262.54776 0.01141033,253.18627 3.0623539,245.97691 9.9309819,239.08267 c 6.6946911,-6.71969 14.3625451,-9.81602 24.3086381,-9.81602 11.987651,0 22.476946,5.97571 28.819476,16.41841 3.413186,5.61966 4.697424,10.41525 4.673921,17.45338 -0.03279,9.89403 -3.043696,16.99625 -10.208197,24.08151 -7.46383,7.38132 -18.408307,10.98793 -28.578815,9.41783 z m 14.203896,-7.31098 c 11.710741,-3.45925 16.939871,-11.8734 12.837488,-20.65666 -1.887311,-4.04081 -4.754421,-7.12275 -7.493576,-8.05508 -2.266408,-0.77145 -2.266408,-0.77145 -0.765429,-1.34654 1.570015,-0.60141 3.315143,-2.64234 3.315143,-3.87686 0,-1.4068 -12.4922,-0.64409 -21.672569,1.32368 -4.391176,0.94113 -4.391176,0.94113 -4.391176,3.07139 0,2.85923 0.475144,3.91626 1.760433,3.91626 1.144915,0 1.443855,0.83379 0.505995,1.41128 -1.258869,0.77518 -0.398853,1.26799 2.793094,1.60038 14.184501,1.47716 19.631313,11.8522 9.498989,18.09361 -2.338228,1.44028 -3.251728,1.66412 -6.792973,1.66412 -3.426247,0 -4.703793,-0.29139 -7.857677,-1.79089 -6.271465,-2.98218 -11.239907,-9.56051 -11.239907,-14.8819 0,-1.0167 0.897987,-1.04603 3.860514,-0.12603 0.409293,0.12735 -0.843661,-1.68145 -2.784381,-4.01907 -1.940714,-2.33762 -3.744038,-4.03554 -4.007381,-3.77317 -0.559064,0.55675 -3.3013912,11.0562 -3.3013912,12.63964 0,0.85793 0.3619122,0.66544 1.7840436,-0.9482 0.9812246,-1.11344 1.9697716,-1.82088 2.1967696,-1.57212 0.226998,0.24871 0.851309,1.79902 1.387365,3.44487 2.0858,6.40403 8.181048,12.11175 14.90259,13.95516 3.841997,1.05371 11.774921,1.01577 15.464049,-0.074 z m -8.521452,-30.11802 c -1.131732,-0.71311 -0.736366,-0.95828 2.250005,-1.39507 2.549713,-0.37273 2.549713,-0.37273 1.212085,0.78231 -1.472731,1.27192 -2.209124,1.40229 -3.46209,0.61276 z m 25.514639,12.3948 c 1.092007,-8.67703 -1.255263,-17.0469 -6.003653,-21.40776 -4.489056,-4.12276 -9.488443,-5.96156 -17.947698,-6.60134 -4.936233,-0.37339 -4.936233,-0.37339 -3.82457,-1.7814 1.108764,-1.40441 1.59147,-5.77207 0.637897,-5.77207 -1.358758,0 -17.546014,11.84132 -20.673878,15.12335 -1.599821,1.67873 -1.599821,1.67873 0.233958,3.75957 1.436487,1.63011 2.120646,2.00917 3.157978,1.7498 1.060386,-0.26537 1.324218,-0.10402 1.324218,0.80865 0,1.38222 -0.3154,1.38381 3.735868,-0.02 7.499062,-2.5968 19.583368,-4.48642 28.691421,-4.48642 4.990106,0 4.990106,0 4.617633,1.55244 -0.490468,2.04436 -1.094973,3.18007 -2.162237,4.06261 -0.767626,0.63476 -0.566224,1.06603 1.638414,3.5092 2.716015,3.00979 4.733795,7.59028 5.247546,11.9122 0.176606,1.48575 0.414446,2.60846 0.52848,2.49485 0.114035,-0.11402 0.473404,-2.3207 0.79861,-4.90461 z M 21.013565,246.78443 c 1.520492,-1.26191 2.027069,-1.44961 2.171546,-0.80452 0.28783,1.28526 -1.006669,2.48251 -2.665877,2.46557 -1.488785,-0.0134 -1.488785,-0.0134 0.494351,-1.66105 z"
       id="path3743"
       inkscape:connector-curvature="0" />
  </g>
</svg>
